<svg width="79" height="28" viewBox="0 0 79 28" fill="none" xmlns="http://www.w3.org/2000/svg">
<g clip-path="url(#clip0_190_2392)">
<rect width="78.2031" height="28" fill="#1B2149"/>
<path d="M0 0C25.807 0 51.6141 0 78.2031 0C78.2031 9.24 78.2031 18.48 78.2031 28C52.3961 28 26.5891 28 0 28C0 18.76 0 9.52 0 0Z" fill="#1B2149"/>
<path d="M13.2581 1.63965C13.4371 1.71077 13.5786 1.81489 13.73 1.93124C14.912 2.80089 16.261 3.50421 17.664 3.93759C17.6526 3.9906 17.6526 3.9906 17.6408 4.04467C17.5604 4.44437 17.5336 4.82917 17.5342 5.23642C17.5343 5.29873 17.5343 5.36105 17.5344 5.42525C17.5414 5.90906 17.6008 6.32606 17.7734 6.78134C17.7898 6.82604 17.8063 6.87073 17.8232 6.91678C17.8735 7.03994 17.9302 7.15582 17.9922 7.27353C18.0178 7.32386 18.0435 7.3742 18.0699 7.42606C18.6096 8.42051 19.4901 9.12693 20.5755 9.46082C21.6223 9.73327 22.6785 9.69753 23.6656 9.24164C23.789 9.18759 23.789 9.18759 23.8984 9.18759C23.901 9.87461 23.9029 10.5616 23.9041 11.2486C23.9047 11.5678 23.9054 11.8869 23.9067 12.206C23.9079 12.5149 23.9085 12.8237 23.9088 13.1326C23.909 13.2495 23.9094 13.3664 23.91 13.4833C23.9271 16.9737 22.5867 19.6138 20.1521 22.0729C20.1115 22.1137 20.071 22.1544 20.0293 22.1964C19.9721 22.254 19.9721 22.254 19.9138 22.3127C19.6649 22.5607 19.4073 22.7949 19.1406 23.0235C19.0879 23.0698 19.0351 23.116 18.9808 23.1637C18.4531 23.6185 17.8969 24.0327 17.3359 24.4454C17.2941 24.4763 17.2522 24.5072 17.2091 24.5391C16.2331 25.2587 15.2223 25.9216 14.1865 26.5517C14.0599 26.6297 13.9347 26.7097 13.8099 26.7906C13.7724 26.8143 13.735 26.8381 13.6964 26.8626C13.6276 26.9063 13.5593 26.9507 13.4916 26.9959C13.4001 27.0531 13.4001 27.0531 13.2344 27.1251C12.9097 27.0248 12.6259 26.8203 12.3389 26.6432C12.3083 26.6243 12.2777 26.6055 12.2462 26.5861C10.8103 25.6998 9.40827 24.7382 8.09374 23.6798C8.04037 23.6371 7.98701 23.5943 7.93202 23.5503C7.64233 23.3161 7.36144 23.0745 7.0865 22.8232C6.97149 22.7191 6.85507 22.6175 6.73766 22.5162C6.50464 22.3127 6.28494 22.0978 6.06688 21.8785C6.03033 21.8422 5.99378 21.8058 5.95612 21.7684C5.70956 21.5213 5.47661 21.2655 5.24999 21.0001C5.20973 20.9534 5.16948 20.9066 5.12801 20.8585C3.93368 19.4257 3.08112 17.8113 2.73436 15.9688C2.72536 15.9266 2.71635 15.8844 2.70707 15.8409C2.60672 15.3247 2.61032 14.8178 2.61257 14.2943C2.6126 14.1929 2.61258 14.0915 2.61252 13.9901C2.61249 13.7167 2.61313 13.4434 2.6139 13.17C2.61458 12.8836 2.61464 12.5972 2.61477 12.3108C2.61511 11.7693 2.61601 11.2277 2.61711 10.6862C2.61833 10.0694 2.61893 9.45256 2.61948 8.83572C2.62062 7.56759 2.62254 6.29947 2.62499 5.03134C2.6675 5.02985 2.71001 5.02836 2.75381 5.02682C2.94814 5.01996 3.14247 5.01297 3.3368 5.00597C3.40368 5.00363 3.47056 5.00129 3.53946 4.99887C3.98201 4.98283 4.4203 4.95935 4.86034 4.90829C4.9223 4.9013 4.98427 4.89431 5.04811 4.88711C6.16031 4.75548 7.25174 4.57563 8.31249 4.21103C8.35898 4.19562 8.40547 4.1802 8.45337 4.16433C10.0296 3.63998 11.748 2.85639 12.9953 1.72958C13.125 1.64072 13.125 1.64072 13.2581 1.63965Z" fill="#E22C21"/>
<path d="M17.1172 9.40622C17.1618 9.44372 17.2064 9.48123 17.2524 9.51987C18.419 10.5223 19.2404 12.015 19.3594 13.5625C19.4491 15.4741 18.9312 17.1024 17.6357 18.5264C16.9258 19.2695 16.0335 19.8452 15.0391 20.125C14.9975 20.1388 14.9559 20.1526 14.913 20.1668C13.5149 20.6224 11.9005 20.4849 10.5827 19.8415C10.0745 19.5787 9.62237 19.2945 9.18751 18.9218C9.14253 18.8848 9.09756 18.8478 9.05122 18.8097C7.8946 17.8242 7.24509 16.3607 7.0547 14.875C6.93064 13.1593 7.3248 11.5446 8.45062 10.2096C9.52229 8.98141 10.9794 8.11801 12.6281 7.99332C14.2567 7.90673 15.8762 8.29642 17.1172 9.40622Z" fill="#E32B21"/>
<path d="M13.2581 1.63965C13.4371 1.71077 13.5786 1.81489 13.73 1.93124C14.912 2.80089 16.261 3.50421 17.664 3.93759C17.6568 3.97658 17.6495 4.01556 17.642 4.05573C17.6324 4.1081 17.6227 4.16048 17.6128 4.21445C17.5985 4.29153 17.5985 4.29153 17.5839 4.37018C17.5522 4.55366 17.5255 4.73753 17.5 4.92197C16.9078 4.7531 16.3547 4.54425 15.8047 4.26572C15.7588 4.24266 15.7129 4.21959 15.6656 4.19584C15.1723 3.94683 14.6823 3.69467 14.2102 3.40717C14.156 3.37418 14.1018 3.3412 14.0459 3.30722C13.9422 3.24342 13.839 3.17878 13.7365 3.11319C13.4719 2.94657 13.4719 2.94657 13.1705 2.89127C12.971 2.97107 12.797 3.07712 12.6191 3.19589C11.1422 4.14702 9.52797 4.93169 7.8203 5.35947C7.77077 5.37232 7.72124 5.38517 7.67021 5.39841C6.39213 5.72645 5.08268 5.90849 3.76196 5.9067C3.71286 5.90665 3.66376 5.90659 3.61317 5.90654C3.57582 5.90648 3.53847 5.90641 3.49999 5.90634C3.50331 7.0863 3.50755 8.26626 3.51288 9.44621C3.51533 9.99418 3.51748 10.5422 3.51893 11.0901C3.52019 11.5682 3.52203 12.0463 3.52452 12.5243C3.52582 12.7771 3.52685 13.0298 3.5272 13.2825C3.52753 13.5213 3.52864 13.76 3.5303 13.9988C3.53077 14.0855 3.53098 14.1723 3.53088 14.2591C3.52998 15.4343 3.72579 16.61 4.26561 17.6642C4.28487 17.7024 4.30414 17.7406 4.32398 17.78C4.68655 18.4972 5.08427 19.161 5.57811 19.797C5.80226 19.7089 5.94793 19.5466 6.11131 19.3766C6.33129 19.1514 6.55322 18.9361 6.79662 18.7359C6.91504 18.6258 7.01073 18.5029 7.10936 18.3751C7.07891 18.3233 7.04845 18.2716 7.01708 18.2183C5.91601 16.3233 5.54317 14.251 6.10942 12.1016C6.40104 11.1361 6.89392 10.2273 7.54686 9.46103C7.60756 9.38891 7.60756 9.38891 7.66948 9.31534C8.42371 8.44838 9.3029 7.86225 10.3359 7.3829C10.3736 7.3645 10.4113 7.3461 10.4501 7.32714C10.7697 7.17601 11.0882 7.0909 11.4331 7.01718C11.4846 7.00558 11.5361 6.99399 11.5891 6.98204C13.5079 6.55876 15.4447 6.9213 17.1172 7.92978C17.5361 8.19842 17.905 8.51773 18.2656 8.85947C18.3147 8.90501 18.3637 8.95055 18.4143 8.99747C19.6829 10.2126 20.4767 11.9818 20.5189 13.7397C20.5438 15.9534 19.9072 17.8979 18.3425 19.5062C16.9409 20.8978 15.0543 21.5712 13.1011 21.5709C13.0403 21.571 13.0403 21.571 12.9783 21.5711C12.0301 21.5697 11.1394 21.4228 10.2812 21.0001C10.2117 20.9676 10.1421 20.9352 10.0725 20.9029C9.5783 20.6686 9.13512 20.3958 8.6953 20.0704C8.51745 20.1479 8.40471 20.2413 8.27147 20.3814C8.12599 20.531 7.97876 20.673 7.8203 20.8087C7.58969 21.0068 7.37637 21.2202 7.16405 21.4376C7.35883 21.8766 7.79913 22.1721 8.16402 22.4649C8.29717 22.5735 8.42481 22.6856 8.55174 22.8014C8.82704 23.0481 9.11848 23.272 9.41393 23.4938C9.51555 23.5704 9.61641 23.6479 9.71727 23.7255C10.346 24.2034 11.0015 24.6403 11.6587 25.0777C11.7297 25.125 11.7297 25.125 11.8022 25.1733C11.9396 25.2647 12.0772 25.3559 12.2147 25.4471C12.2558 25.4743 12.2969 25.5016 12.3393 25.5297C12.4172 25.5812 12.4953 25.6324 12.5736 25.6833C12.6518 25.7346 12.7294 25.7868 12.8064 25.8399C12.8446 25.8655 12.8828 25.8911 12.9221 25.9175C12.9728 25.9523 12.9728 25.9523 13.0245 25.9878C13.1553 26.0445 13.212 26.0262 13.3437 25.9767C13.4811 25.9011 13.6139 25.8233 13.7471 25.7408C13.8097 25.7023 13.8097 25.7023 13.8735 25.6629C14.926 25.0074 15.9601 24.3129 16.9531 23.5704C16.9919 23.5416 17.0306 23.5129 17.0705 23.4832C17.6366 23.0621 18.1773 22.6188 18.7031 22.1485C18.7312 22.1236 18.7593 22.0987 18.7882 22.073C19.483 21.4553 20.1587 20.8082 20.7265 20.0704C20.7694 20.0175 20.8123 19.9647 20.8564 19.9102C22.4357 17.9467 22.8555 15.8226 22.8767 13.3609C22.8778 13.2494 22.8789 13.1378 22.8801 13.0263C22.8831 12.7357 22.8858 12.4452 22.8885 12.1546C22.8912 11.8569 22.8943 11.5592 22.8973 11.2614C22.9031 10.6795 22.9087 10.0976 22.914 9.51572C23.0371 9.47115 23.1601 9.42674 23.2832 9.38242C23.3352 9.36354 23.3352 9.36354 23.3883 9.34428C23.5571 9.28361 23.724 9.2292 23.8984 9.18759C23.901 9.87461 23.9029 10.5616 23.9041 11.2486C23.9047 11.5678 23.9054 11.8869 23.9067 12.206C23.9079 12.5149 23.9085 12.8237 23.9088 13.1326C23.909 13.2495 23.9094 13.3664 23.91 13.4833C23.9271 16.9737 22.5867 19.6138 20.1521 22.0729C20.1115 22.1137 20.071 22.1544 20.0293 22.1964C19.9721 22.254 19.9721 22.254 19.9138 22.3127C19.6649 22.5607 19.4073 22.7949 19.1406 23.0235C19.0879 23.0698 19.0352 23.116 18.9808 23.1637C18.4531 23.6185 17.8969 24.0327 17.3359 24.4454C17.2941 24.4763 17.2522 24.5072 17.2091 24.5391C16.2331 25.2587 15.2223 25.9216 14.1865 26.5517C14.0599 26.6297 13.9347 26.7097 13.8099 26.7906C13.7724 26.8143 13.735 26.8381 13.6964 26.8626C13.6276 26.9063 13.5593 26.9507 13.4916 26.9959C13.4001 27.0531 13.4001 27.0531 13.2344 27.1251C12.9097 27.0248 12.6259 26.8203 12.3389 26.6432C12.3083 26.6243 12.2777 26.6055 12.2462 26.5861C10.8103 25.6998 9.40827 24.7382 8.09374 23.6798C8.04037 23.6371 7.98701 23.5943 7.93202 23.5503C7.64233 23.3161 7.36144 23.0745 7.0865 22.8232C6.97149 22.7191 6.85507 22.6175 6.73766 22.5162C6.50464 22.3127 6.28494 22.0978 6.06688 21.8785C6.03033 21.8422 5.99378 21.8058 5.95612 21.7684C5.70956 21.5213 5.47661 21.2655 5.24999 21.0001C5.20973 20.9534 5.16948 20.9066 5.12801 20.8585C3.93368 19.4257 3.08112 17.8113 2.73436 15.9688C2.72536 15.9266 2.71635 15.8844 2.70707 15.8409C2.60672 15.3247 2.61032 14.8178 2.61257 14.2943C2.6126 14.1929 2.61258 14.0915 2.61252 13.9901C2.61249 13.7167 2.61313 13.4434 2.6139 13.17C2.61458 12.8836 2.61464 12.5972 2.61477 12.3108C2.61511 11.7693 2.61601 11.2277 2.61711 10.6862C2.61833 10.0694 2.61893 9.45256 2.61948 8.83572C2.62062 7.56759 2.62254 6.29947 2.62499 5.03134C2.6675 5.02985 2.71001 5.02836 2.75381 5.02682C2.94814 5.01996 3.14247 5.01297 3.3368 5.00597C3.40368 5.00363 3.47056 5.00129 3.53946 4.99887C3.98201 4.98283 4.4203 4.95935 4.86034 4.90829C4.9223 4.9013 4.98427 4.89431 5.04811 4.88711C6.16031 4.75548 7.25174 4.57563 8.31249 4.21103C8.35898 4.19562 8.40547 4.1802 8.45337 4.16433C10.0296 3.63998 11.748 2.85639 12.9953 1.72958C13.125 1.64072 13.125 1.64072 13.2581 1.63965ZM10.1172 8.80478C10.0626 8.83516 10.008 8.86555 9.95183 8.89685C9.53911 9.14342 9.20339 9.45722 8.85936 9.78915C8.81995 9.82511 8.78055 9.86106 8.73995 9.8981C7.69586 10.8771 7.08815 12.3725 7.0363 13.7899C7.01292 15.445 7.41692 16.9176 8.47655 18.211C8.51405 18.2576 8.55156 18.3041 8.5902 18.352C9.11703 18.9725 9.77999 19.4284 10.5 19.797C10.5574 19.8267 10.6149 19.8565 10.6741 19.8871C11.9586 20.4947 13.3968 20.5355 14.7656 20.2345C14.8406 20.2186 14.8406 20.2186 14.9171 20.2024C15.9302 19.9437 16.8807 19.2678 17.6094 18.5392C17.6579 18.4907 17.7064 18.4422 17.7563 18.3922C18.0958 18.0361 18.3538 17.6553 18.5937 17.2267C18.6189 17.1825 18.6441 17.1383 18.67 17.0927C19.4424 15.6485 19.5543 13.9944 19.1408 12.4263C18.6731 10.8841 17.5919 9.53882 16.1875 8.75009C14.2312 7.72859 12.0451 7.72559 10.1172 8.80478Z" fill="white"/>
<path d="M24.124 2.39269C24.8256 2.98118 25.3683 3.77806 25.4844 4.70324C25.5329 5.4424 25.5229 6.09867 25.211 6.78136C25.1878 6.8343 25.1647 6.88724 25.1409 6.94179C24.7295 7.78481 23.9478 8.42631 23.0781 8.75011C23.0321 8.76759 22.9861 8.78508 22.9386 8.80309C22.0167 9.09128 21.0236 8.9686 20.1692 8.55657C19.2384 8.05486 18.6283 7.25286 18.3032 6.25841C18.0474 5.29968 18.2167 4.28985 18.6901 3.42726C18.8577 3.14148 19.066 2.90823 19.3047 2.6798C19.3416 2.64187 19.3784 2.60394 19.4164 2.56487C20.6932 1.32405 22.7432 1.33612 24.124 2.39269Z" fill="#128D46"/>
<path d="M38.0623 8.59528C38.6814 9.12675 39.1019 9.83051 39.1684 10.6499C39.1955 11.5388 38.9139 12.4401 38.3017 13.0976C37.4343 13.8902 36.4504 14.0469 35.3132 14.0097C35.0041 13.9894 34.7359 13.9089 34.4531 13.7812C34.3754 13.7464 34.3754 13.7464 34.2961 13.7109C33.5372 13.3331 32.9897 12.7155 32.7031 11.9218C32.4657 11.0966 32.4527 10.3141 32.8467 9.53608C33.2728 8.80769 33.8933 8.34091 34.6719 8.03901C34.7378 8.01268 34.7378 8.01268 34.8052 7.98582C35.9041 7.61665 37.147 7.9318 38.0623 8.59528Z" fill="white"/>
<path d="M15.6953 9.18755C15.8155 9.27483 15.8545 9.32367 15.8803 9.47106C15.8805 9.51778 15.8807 9.56451 15.881 9.61265C15.8816 9.66638 15.8822 9.72012 15.8828 9.77548C15.8827 9.83437 15.8825 9.89326 15.8823 9.95394C15.8828 10.016 15.8833 10.0781 15.8838 10.1421C15.885 10.3481 15.8851 10.554 15.885 10.76C15.8854 10.9032 15.8858 11.0463 15.8863 11.1894C15.8871 11.49 15.8871 11.7905 15.8868 12.091C15.8864 12.4374 15.8877 12.7837 15.8897 13.13C15.8916 13.464 15.8919 13.7979 15.8917 14.1319C15.8918 14.2735 15.8923 14.4152 15.8933 14.5568C15.8945 14.7555 15.894 14.9542 15.893 15.1529C15.8938 15.211 15.8945 15.2691 15.8952 15.329C15.8904 15.7638 15.7857 16.1241 15.4941 16.4562C15.211 16.7311 14.8787 16.8225 14.4956 16.8711C14.1011 16.8523 13.7676 16.6368 13.5078 16.3516C13.2381 16.03 13.2094 15.7348 13.2177 15.3247C13.2521 14.9607 13.3982 14.7485 13.6616 14.5025C13.9848 14.2418 14.2655 14.1464 14.6768 14.1423C14.8203 14.1641 14.8203 14.1641 15.2031 14.3282C15.2031 13.3536 15.2031 12.3791 15.2031 11.3751C14.2983 11.7361 13.3943 12.0988 12.4916 12.4652C12.3985 12.503 12.3053 12.5408 12.2121 12.5785C11.9878 12.6695 11.7634 12.7606 11.5391 12.8516C11.539 12.9093 11.5389 12.967 11.5388 13.0265C11.5379 13.572 11.5356 14.1174 11.5318 14.6629C11.53 14.9433 11.5286 15.2237 11.5284 15.5041C11.5281 15.775 11.5266 16.0459 11.5241 16.3168C11.5234 16.4198 11.5232 16.5229 11.5234 16.6259C11.5255 17.7491 11.5255 17.7491 11.1191 18.2045C10.8388 18.4821 10.5029 18.5726 10.1206 18.6211C9.72609 18.6023 9.3926 18.3868 9.13282 18.1016C8.83633 17.7481 8.82249 17.3995 8.85939 16.9532C8.96421 16.5832 9.19995 16.2695 9.5214 16.0566C9.82061 15.9067 10.1141 15.8669 10.4453 15.9141C10.5369 15.9494 10.6281 15.9858 10.7188 16.0235C10.7187 15.963 10.7187 15.9025 10.7186 15.8402C10.7184 15.2705 10.7199 14.7007 10.7232 14.131C10.7247 13.8381 10.7257 13.5452 10.7253 13.2523C10.725 12.9697 10.7262 12.6871 10.7285 12.4045C10.7291 12.2966 10.7292 12.1887 10.7286 12.0808C10.728 11.9298 10.7293 11.7789 10.7312 11.6279C10.7305 11.5832 10.7298 11.5385 10.7292 11.4924C10.7319 11.3674 10.7319 11.3674 10.7734 11.1563C10.9251 11.0243 10.9251 11.0243 11.1016 10.9376C11.1423 10.9174 11.1831 10.8973 11.2251 10.8766C11.264 10.8608 11.3028 10.8449 11.3428 10.8286C11.3878 10.8101 11.4327 10.7916 11.479 10.7725C11.5269 10.7532 11.5749 10.7338 11.6243 10.7139C11.7006 10.6826 11.7006 10.6826 11.7784 10.6507C11.9434 10.583 12.1087 10.5159 12.2739 10.4488C12.5019 10.3558 12.7297 10.2626 12.9575 10.1694C13.014 10.1463 13.0705 10.1232 13.1286 10.0995C13.4694 9.96005 13.8088 9.81782 14.147 9.67205C14.1863 9.65517 14.2256 9.6383 14.2662 9.62091C14.4847 9.52718 14.4847 9.52718 14.7027 9.43207C14.7991 9.38963 14.8959 9.34806 14.9927 9.30654C15.0457 9.28337 15.0987 9.2602 15.1533 9.23633C15.3446 9.17772 15.4964 9.16818 15.6953 9.18755Z" fill="#FEFCFC"/>
<path d="M66.0625 14.9844C69.4226 14.9844 69.4226 14.9844 70.3689 15.8912C70.9544 16.5193 71.1781 17.1805 71.1636 18.0249C71.1401 18.5703 70.9022 19.024 70.6016 19.4687C70.5689 19.5173 70.5361 19.5658 70.5024 19.6157C69.9411 20.2091 69.3109 20.4355 68.5234 20.6172C67.7113 20.6172 66.8992 20.6172 66.0625 20.6172C66.0625 18.7584 66.0625 16.8995 66.0625 14.9844Z" fill="white"/>
<path d="M63.4228 8.42425C63.7342 8.69044 64.006 8.99006 64.2031 9.35159C64.2031 9.40573 64.2031 9.45987 64.2031 9.51565C63.988 9.60727 63.7726 9.69824 63.5571 9.78909C63.4959 9.81517 63.4347 9.84125 63.3716 9.86813C63.3129 9.8928 63.2542 9.91747 63.1938 9.94289C63.1396 9.96581 63.0855 9.98872 63.0297 10.0123C62.8906 10.0625 62.8906 10.0625 62.7266 10.0625C62.6623 9.97643 62.6623 9.97643 62.6001 9.86086C62.4169 9.55003 62.2006 9.35576 61.8516 9.24221C61.3921 9.1876 60.9875 9.19167 60.5985 9.4663C60.2428 9.79064 60.0055 10.2499 59.9627 10.7312C59.9407 11.3163 60.0249 11.7676 60.375 12.25C60.6683 12.5398 61.0193 12.7499 61.438 12.7661C61.7782 12.7489 62.0907 12.6531 62.3916 12.4961C62.5775 12.2774 62.6391 12.0298 62.7266 11.7578C62.3115 11.7578 61.8964 11.7578 61.4688 11.7578C61.4688 11.3789 61.4688 10.9999 61.4688 10.6094C62.4794 10.6094 63.49 10.6094 64.5313 10.6094C64.5313 11.6877 64.4062 12.4434 63.6768 13.2481C62.9497 13.9316 62.0665 14.0427 61.1144 14.019C60.7478 14.0017 60.4383 13.9333 60.1016 13.7813C60.0238 13.7465 60.0238 13.7465 59.9446 13.711C59.3521 13.416 58.9227 13.0038 58.625 12.4141C58.6037 12.3742 58.5824 12.3343 58.5605 12.2932C58.1757 11.5151 58.2183 10.5916 58.4784 9.78281C58.7386 9.06169 59.3022 8.47312 59.9922 8.14846C61.0895 7.71649 62.4475 7.69451 63.4228 8.42425Z" fill="white"/>
<path d="M50.6953 8.09385C51.4076 8.08708 51.4076 8.08708 52.1343 8.08017C52.283 8.07818 52.4317 8.07619 52.5849 8.07414C52.7045 8.0735 52.8241 8.07294 52.9437 8.07248C53.0044 8.07136 53.0651 8.07025 53.1276 8.06909C53.7159 8.06883 54.2601 8.21726 54.6875 8.64072C55.0446 9.09626 55.1119 9.54905 55.0703 10.1173C55.0055 10.5321 54.8299 10.8675 54.5234 11.1563C54.2978 11.3029 54.0853 11.4298 53.8125 11.4298C53.965 11.6643 54.1274 11.8873 54.3013 12.1065C54.3397 12.1554 54.3397 12.1554 54.3789 12.2052C54.5244 12.3891 54.6716 12.5714 54.8206 12.7525C54.8519 12.7907 54.8833 12.8289 54.9156 12.8682C54.9759 12.9416 55.0366 13.0148 55.0974 13.0878C55.293 13.3253 55.4604 13.5715 55.6172 13.836C55.0166 13.9688 54.2792 14.1165 53.7031 13.836C53.0536 13.3153 52.6579 12.4242 52.2812 11.7032C52.2632 12.407 52.2452 13.1109 52.2266 13.836C51.7213 13.836 51.2159 13.836 50.6953 13.836C50.6953 11.9411 50.6953 10.0462 50.6953 8.09385Z" fill="white"/>
<path d="M65.2422 8.03906C65.7655 8.03906 66.2889 8.03906 66.8281 8.03906C66.8281 8.77898 66.8281 9.51891 66.8281 10.2812C67.568 10.2812 68.308 10.2812 69.0703 10.2812C69.0703 9.55938 69.0703 8.8375 69.0703 8.09375C69.5756 8.09375 70.0809 8.09375 70.6016 8.09375C70.6016 9.98867 70.6016 11.8836 70.6016 13.8359C70.0963 13.8359 69.5909 13.8359 69.0703 13.8359C69.0703 13.0419 69.0703 12.2478 69.0703 11.4297C68.3304 11.4297 67.5905 11.4297 66.8281 11.4297C66.8281 12.2238 66.8281 13.0178 66.8281 13.8359C66.3048 13.8359 65.7814 13.8359 65.2422 13.8359C65.2422 11.923 65.2422 10.01 65.2422 8.03906Z" fill="white"/>
<path d="M58.2422 15.0391C61.5645 15.0391 61.5645 15.0391 62.1968 15.6543C62.4953 16.1408 62.5848 16.5929 62.48 17.1576C62.373 17.5628 62.2069 17.8611 61.8516 18.0913C61.6925 18.1829 61.5333 18.2605 61.3594 18.3203C61.4483 18.5201 61.5708 18.681 61.7046 18.8535C61.7282 18.884 61.7518 18.9145 61.7761 18.946C61.9145 19.1239 62.0554 19.2995 62.1983 19.4739C62.2292 19.5117 62.2602 19.5495 62.2921 19.5884C62.352 19.6614 62.4122 19.7341 62.4726 19.8066C62.6857 20.0652 62.8733 20.3356 63.0547 20.6172C62.7979 20.6322 62.5414 20.643 62.2843 20.6502C62.1971 20.6532 62.1099 20.6573 62.0227 20.6626C61.3021 20.7047 61.3021 20.7047 61.0476 20.4961C60.9337 20.3412 60.8446 20.187 60.7578 20.0156C60.7089 19.9382 60.6594 19.8611 60.6089 19.7847C60.566 19.7148 60.5234 19.6449 60.481 19.5747C60.276 19.237 60.0556 18.9188 59.8281 18.5937C59.8101 19.2615 59.792 19.9292 59.7734 20.6172C59.2681 20.6172 58.7628 20.6172 58.2422 20.6172C58.2422 18.7764 58.2422 16.9356 58.2422 15.0391Z" fill="white"/>
<path d="M32.8125 15.0391C33.3178 15.0391 33.8231 15.0391 34.3438 15.0391C34.3438 15.7429 34.3438 16.4467 34.3438 17.1719C35.0656 17.1719 35.7875 17.1719 36.5312 17.1719C36.5312 16.468 36.5312 15.7642 36.5312 15.0391C37.0185 15.0391 37.5058 15.0391 38.0078 15.0391C38.0078 16.8798 38.0078 18.7206 38.0078 20.6172C37.5025 20.6172 36.9972 20.6172 36.4766 20.6172C36.4766 19.8592 36.4766 19.1013 36.4766 18.3203C35.7727 18.3203 35.0689 18.3203 34.3438 18.3203C34.3438 19.0783 34.3438 19.8362 34.3438 20.6172C33.8384 20.6172 33.3331 20.6172 32.8125 20.6172C32.8125 18.7764 32.8125 16.9356 32.8125 15.0391Z" fill="white"/>
<path d="M39.8672 8.03906C43.2589 8.03906 43.2589 8.03906 43.8594 8.53125C44.2774 8.95166 44.4196 9.36418 44.4268 9.94971C44.4206 10.5138 44.2994 11.0026 43.9141 11.4297C43.2071 12.026 42.262 11.9379 41.3984 11.9219C41.3984 12.5535 41.3984 13.1852 41.3984 13.8359C40.8931 13.8359 40.3878 13.8359 39.8672 13.8359C39.8672 11.923 39.8672 10.01 39.8672 8.03906Z" fill="white"/>
<path d="M48.2344 15.039C48.7397 15.039 49.245 15.039 49.7656 15.039C49.7927 16.1219 49.7927 16.1219 49.8203 17.2265C50.0188 16.9739 50.2173 16.7212 50.4219 16.4609C50.8603 15.9056 50.8603 15.9056 50.9399 15.8087C51.031 15.6899 51.031 15.6899 51.1176 15.5272C51.3893 15.0814 51.3893 15.0814 51.6174 15.0049C51.9032 14.9575 52.1886 14.9791 52.4761 14.998C52.5634 15.0013 52.6507 15.0043 52.7381 15.007C52.9507 15.0142 53.1627 15.0255 53.375 15.039C53.2779 15.2469 53.1458 15.3972 52.9888 15.562C52.7904 15.7739 52.5998 15.9883 52.418 16.2148C52.2395 16.4365 52.0539 16.6485 51.8608 16.8574C51.8354 16.8851 51.8099 16.9128 51.7837 16.9414C51.676 17.0583 51.5678 17.1745 51.4573 17.2887C51.2879 17.459 51.2879 17.459 51.2465 17.6843C51.3113 17.8693 51.4069 17.9677 51.543 18.1084C51.5934 18.1617 51.6438 18.2151 51.694 18.2686C51.7193 18.2955 51.7447 18.3224 51.7708 18.3502C51.8791 18.4681 51.9792 18.592 52.0796 18.7168C52.2764 18.9605 52.4789 19.1984 52.6846 19.4346C52.9216 19.707 53.158 19.9799 53.3921 20.2549C53.418 20.2851 53.444 20.3154 53.4707 20.3466C53.6484 20.5561 53.6484 20.5561 53.6484 20.6172C51.7996 20.7687 51.7996 20.7687 51.4118 20.4493C51.254 20.2716 51.14 20.0726 51.0329 19.8612C50.9308 19.6718 50.7948 19.5139 50.6577 19.3491C50.376 18.9899 50.0987 18.6275 49.8203 18.2656C49.8023 19.0416 49.7842 19.8176 49.7656 20.6172C49.2603 20.6172 48.755 20.6172 48.2344 20.6172C48.2344 18.7764 48.2344 16.9356 48.2344 15.039Z" fill="white"/>
<path d="M31.8828 8.14841C31.9375 8.20309 31.9375 8.20309 31.9437 8.36995C31.9437 8.44371 31.9434 8.51748 31.9428 8.59125C31.9428 8.63001 31.9427 8.66878 31.9426 8.70872C31.9423 8.83299 31.9416 8.95725 31.9409 9.08151C31.9406 9.16557 31.9404 9.24963 31.9402 9.33369C31.9396 9.54016 31.9386 9.74663 31.9375 9.95309C31.9092 9.93091 31.881 9.90873 31.8519 9.88588C31.4022 9.53952 30.9789 9.36338 30.4022 9.38507C30.0004 9.43818 29.6453 9.60092 29.3672 9.89841C29.0966 10.3507 28.9894 10.7386 29.0391 11.2656C29.1415 11.6696 29.3382 12.0356 29.6947 12.2653C30.14 12.5002 30.6628 12.5537 31.1479 12.4072C31.4509 12.2859 31.4509 12.2859 31.9375 11.9765C31.9375 12.554 31.9375 13.1315 31.9375 13.7265C30.914 14.0677 30.0094 14.097 29.0186 13.6308C28.3017 13.2413 27.7313 12.6496 27.4706 11.8646C27.2545 11.006 27.3758 10.1655 27.7915 9.39597C28.1598 8.8 28.6399 8.45288 29.2578 8.14841C29.3082 8.12338 29.3586 8.09835 29.4106 8.07257C30.1591 7.76471 31.1448 7.84764 31.8828 8.14841Z" fill="white"/>
<path d="M54.0312 15.0391C55.1141 15.0391 56.1969 15.0391 57.3125 15.0391C57.3125 15.4361 57.3125 15.8331 57.3125 16.2422C56.735 16.2422 56.1575 16.2422 55.5625 16.2422C55.5625 16.549 55.5625 16.8558 55.5625 17.1719C56.122 17.1719 56.6814 17.1719 57.2578 17.1719C57.2578 17.587 57.2578 18.002 57.2578 18.4297C56.6984 18.4297 56.1389 18.4297 55.5625 18.4297C55.5625 18.7365 55.5625 19.0433 55.5625 19.3594C56.158 19.3594 56.7536 19.3594 57.3672 19.3594C57.3672 19.7745 57.3672 20.1895 57.3672 20.6172C56.2663 20.6172 55.1655 20.6172 54.0312 20.6172C54.0312 18.7764 54.0312 16.9356 54.0312 15.0391Z" fill="white"/>
<path d="M38.9922 15.0391C40.075 15.0391 41.1578 15.0391 42.2734 15.0391C42.2734 15.4361 42.2734 15.8331 42.2734 16.2422C41.6779 16.2422 41.0823 16.2422 40.4688 16.2422C40.4688 16.549 40.4688 16.8558 40.4688 17.1719C41.0282 17.1719 41.5877 17.1719 42.1641 17.1719C42.1641 17.587 42.1641 18.002 42.1641 18.4297C41.6227 18.4297 41.0812 18.4297 40.5234 18.4297C40.5234 18.7365 40.5234 19.0433 40.5234 19.3594C41.1009 19.3594 41.6784 19.3594 42.2734 19.3594C42.2734 19.7745 42.2734 20.1895 42.2734 20.6172C41.1906 20.6172 40.1078 20.6172 38.9922 20.6172C38.9922 18.7764 38.9922 16.9356 38.9922 15.0391Z" fill="white"/>
<path d="M71.8594 15.0391C72.9422 15.0391 74.025 15.0391 75.1406 15.0391C75.1406 15.4361 75.1406 15.8331 75.1406 16.2422C74.5451 16.2422 73.9495 16.2422 73.3359 16.2422C73.3359 16.549 73.3359 16.8558 73.3359 17.1719C73.8954 17.1719 74.4548 17.1719 75.0312 17.1719C75.0312 17.587 75.0312 18.002 75.0312 18.4297C74.4718 18.4297 73.9123 18.4297 73.3359 18.4297C73.3359 18.7365 73.3359 19.0433 73.3359 19.3594C73.9315 19.3594 74.527 19.3594 75.1406 19.3594C75.1406 19.7745 75.1406 20.1895 75.1406 20.6172C74.0578 20.6172 72.975 20.6172 71.8594 20.6172C71.8594 18.7764 71.8594 16.9356 71.8594 15.0391Z" fill="white"/>
<path d="M30.4105 14.8646C30.9279 14.8466 31.4676 14.9135 31.9375 15.1485C31.9375 15.726 31.9375 16.3035 31.9375 16.8985C31.7931 16.7902 31.6487 16.6819 31.5 16.5704C31.0655 16.3233 30.5818 16.2795 30.0933 16.3832C29.6836 16.5225 29.3947 16.8041 29.1929 17.1852C29.074 17.5886 29.076 18.0954 29.2046 18.4949C29.422 18.8893 29.7481 19.1087 30.1602 19.2706C30.8819 19.3994 31.3327 19.1611 31.9375 18.7579C31.9375 19.3354 31.9375 19.9129 31.9375 20.5079C30.9774 20.7639 30.9774 20.7639 30.5327 20.754C30.4837 20.7533 30.4347 20.7526 30.3843 20.752C29.9965 20.7404 29.6647 20.6761 29.3125 20.5079C29.2617 20.4847 29.211 20.4615 29.1587 20.4376C28.4205 20.0695 27.9282 19.5119 27.6161 18.7594C27.3735 18.0103 27.4492 17.1727 27.8007 16.4787C27.8793 16.3398 27.9634 16.209 28.0547 16.0782C28.0808 16.0406 28.107 16.003 28.1339 15.9643C28.5817 15.3925 29.3122 15.0266 30.0132 14.8887C30.1455 14.8782 30.278 14.8728 30.4105 14.8646Z" fill="white"/>
<path d="M47.3047 15.1483C47.3047 15.7078 47.3047 16.2672 47.3047 16.8437C47.1603 16.7354 47.016 16.6271 46.8672 16.5155C46.4452 16.2895 45.8715 16.2599 45.4105 16.3931C45.304 16.4445 45.2125 16.5005 45.1172 16.5702C45.0687 16.6007 45.0202 16.6311 44.9702 16.6625C44.6709 16.9618 44.5102 17.3318 44.502 17.7528C44.5096 18.225 44.6258 18.5936 44.9548 18.9387C45.294 19.23 45.6745 19.3251 46.1133 19.32C46.5725 19.2736 46.9175 19.0544 47.3047 18.8124C47.3047 19.3719 47.3047 19.9313 47.3047 20.5077C46.5464 20.811 45.613 20.8644 44.8397 20.5806C43.9828 20.1905 43.399 19.6751 43.044 18.7989C42.8326 18.1686 42.8232 17.3384 43.0728 16.7195C43.5052 15.8657 44.1243 15.3291 45.0078 14.9843C45.7754 14.7345 46.568 14.8721 47.3047 15.1483Z" fill="white"/>
<path d="M44.4062 8.03912C46.0006 7.8742 46.0006 7.8742 46.4182 8.13405C46.6475 8.3699 46.784 8.64504 46.9132 8.94467C47.0128 9.15448 47.1437 9.34779 47.3047 9.51569C47.3408 9.51569 47.3769 9.51569 47.4141 9.51569C47.4978 9.41777 47.4978 9.41777 47.5826 9.28989C47.6156 9.24227 47.6485 9.19465 47.6825 9.14559C47.7168 9.09515 47.7512 9.04471 47.7866 8.99274C47.8542 8.89468 47.9218 8.79662 47.9893 8.69858C48.0343 8.63285 48.0343 8.63285 48.0801 8.5658C48.113 8.51832 48.1458 8.47085 48.1797 8.42194C48.1987 8.38856 48.2176 8.35518 48.2372 8.32079C48.3023 8.21381 48.3629 8.12612 48.4531 8.03912C48.6181 8.00358 48.7232 7.99352 48.8866 8.00174C48.9275 8.00228 48.9683 8.00282 49.0105 8.00338C49.1404 8.00552 49.2701 8.01032 49.3999 8.0152C49.4882 8.01712 49.5766 8.01887 49.6649 8.02043C49.8809 8.02464 50.0966 8.03124 50.3125 8.03912C50.2385 8.19663 50.154 8.33259 50.05 8.47192C50.0194 8.51305 49.9889 8.55417 49.9574 8.59653C49.9246 8.64043 49.8917 8.68433 49.8579 8.72955C49.7883 8.82331 49.7187 8.91709 49.6492 9.0109C49.6139 9.05852 49.5785 9.10615 49.5421 9.15522C49.3827 9.37113 49.2253 9.58851 49.0684 9.80621C49.042 9.84267 49.0157 9.87912 48.9886 9.91668C48.9334 9.99323 48.8792 10.0705 48.8258 10.1482C48.7266 10.2813 48.7266 10.2813 48.5857 10.4306C48.0418 11.0357 48.1057 11.7136 48.1182 12.4893C48.1183 12.6202 48.1181 12.7511 48.1177 12.882C48.1169 13.2001 48.121 13.5177 48.125 13.836C47.6197 13.836 47.1144 13.836 46.5938 13.836C46.5981 13.6461 46.6024 13.4562 46.6068 13.2605C46.6085 13.0731 46.609 12.8858 46.6094 12.6985C46.6104 12.5699 46.6125 12.4413 46.6161 12.3128C46.6399 11.4026 46.5299 10.8427 45.9134 10.1584C45.804 10.0354 45.709 9.90438 45.6143 9.7699C45.5569 9.69196 45.4994 9.61406 45.4419 9.53619C45.4108 9.49401 45.3798 9.45182 45.3478 9.40835C45.1894 9.1936 45.0298 8.97981 44.8683 8.76737C44.8377 8.72698 44.8071 8.6866 44.7755 8.64499C44.7175 8.5686 44.6592 8.49238 44.6006 8.41636C44.4062 8.16058 44.4062 8.16058 44.4062 8.03912Z" fill="white"/>
<path d="M71.1484 8.03906C72.52 8.03906 73.8916 8.03906 75.3047 8.03906C75.3047 8.47219 75.3047 8.90531 75.3047 9.35156C74.8716 9.35156 74.4384 9.35156 73.9922 9.35156C73.9922 10.8314 73.9922 12.3113 73.9922 13.8359C73.4688 13.8359 72.9455 13.8359 72.4062 13.8359C72.4062 12.3561 72.4062 10.8763 72.4062 9.35156C71.9912 9.35156 71.5761 9.35156 71.1484 9.35156C71.1484 8.91844 71.1484 8.48531 71.1484 8.03906Z" fill="white"/>
<path d="M56.0547 8.03906C56.578 8.03906 57.1014 8.03906 57.6406 8.03906C57.6406 9.95203 57.6406 11.865 57.6406 13.8359C57.1173 13.8359 56.5939 13.8359 56.0547 13.8359C56.0547 11.923 56.0547 10.01 56.0547 8.03906Z" fill="white"/>
<path d="M36.8286 9.57899C37.1577 9.81527 37.4056 10.1053 37.5156 10.4999C37.5699 11.017 37.5122 11.4481 37.2125 11.8791C36.906 12.2549 36.5052 12.5413 36.0136 12.5919C35.5213 12.6133 35.1379 12.4906 34.7607 12.1713C34.6937 12.1074 34.6275 12.0425 34.5625 11.9765C34.5208 11.9347 34.479 11.893 34.436 11.85C34.1818 11.4451 34.1151 10.9697 34.1797 10.4999C34.3214 10.04 34.6044 9.7434 35.0096 9.49824C35.5921 9.21726 36.2763 9.26009 36.8286 9.57899Z" fill="#1B2149"/>
<path d="M23.8438 3.49993C23.9861 3.58926 24.083 3.68532 24.1719 3.82805C24.2316 4.09257 24.2316 4.09257 24.1719 4.26555C24.0434 4.43102 23.8897 4.56328 23.7344 4.70305C23.6762 4.76692 23.6192 4.83188 23.5635 4.89788C23.3714 5.12138 23.1704 5.33587 22.9688 5.55071C22.742 5.79257 22.5176 6.03537 22.301 6.28643C22.1643 6.44282 22.025 6.59678 21.8853 6.75042C21.8589 6.77958 21.8326 6.80874 21.8055 6.83879C21.6559 7.00272 21.5691 7.09404 21.3491 7.13772C21.0621 7.09365 20.9189 6.91056 20.7197 6.7094C20.6376 6.62873 20.5554 6.54812 20.4732 6.46758C20.4128 6.40789 20.4128 6.40789 20.3512 6.34699C20.2466 6.24614 20.1401 6.1501 20.0297 6.05572C19.9993 6.02951 19.969 6.00331 19.9377 5.97631C19.857 5.90738 19.7757 5.83914 19.6943 5.77096C19.546 5.59459 19.5255 5.47852 19.5234 5.24993C19.6283 5.01406 19.8017 4.88744 20.0361 4.79192C20.3347 4.8228 20.4687 4.98536 20.6719 5.19524C20.7583 5.28425 20.8449 5.37312 20.9316 5.46184C20.9708 5.50344 21.01 5.54503 21.0504 5.58788C21.1658 5.68895 21.233 5.7212 21.3828 5.74212C21.4036 5.69432 21.4036 5.69432 21.4249 5.64556C21.4995 5.51014 21.582 5.42464 21.6938 5.31829C21.8724 5.14422 22.0381 4.96484 22.2006 4.7759C22.3721 4.58045 22.5498 4.39072 22.7267 4.2002C22.916 3.99603 23.1006 3.78869 23.2802 3.57598C23.4526 3.39223 23.6142 3.44254 23.8438 3.49993Z" fill="#FBFDFB"/>
<path d="M67.5938 16.2422C68.2375 16.2422 68.7389 16.2523 69.2107 16.6991C69.5917 17.1363 69.595 17.5994 69.5625 18.1562C69.4905 18.6024 69.2351 18.9171 68.8823 19.1885C68.4352 19.3848 68.1054 19.3594 67.5938 19.3594C67.5938 18.3307 67.5938 17.302 67.5938 16.2422Z" fill="#1B2149"/>
<path d="M64.5312 19.0313C64.8416 19.1367 65.041 19.3398 65.1875 19.6329C65.2185 19.8872 65.2126 20.0757 65.0952 20.3062C64.9186 20.5115 64.735 20.7118 64.4552 20.7397C64.1209 20.7483 63.9188 20.7376 63.6562 20.5079C63.6247 20.4831 63.5931 20.4583 63.5605 20.4327C63.3791 20.1969 63.352 19.9208 63.3828 19.6329C63.6525 19.1235 63.9852 18.9859 64.5312 19.0313Z" fill="white"/>
<path d="M41.3984 9.24219C42.3546 9.24219 42.3546 9.24219 42.6255 9.45752C42.8182 9.71194 42.8054 10.0306 42.7656 10.3359C42.6131 10.5494 42.4653 10.641 42.2188 10.7188C42.0735 10.7263 41.9361 10.7292 41.7915 10.7256C41.6618 10.7233 41.5321 10.7211 41.3984 10.7188C41.3984 10.2315 41.3984 9.74422 41.3984 9.24219Z" fill="#1B2149"/>
<path d="M52.2266 9.1875C53.0007 9.1875 53.0007 9.1875 53.3511 9.46094C53.4724 9.71422 53.4691 9.95113 53.4297 10.2266C53.3248 10.4455 53.2011 10.5152 52.9819 10.5991C52.7152 10.6887 52.535 10.6641 52.2266 10.6641C52.2266 10.1768 52.2266 9.68953 52.2266 9.1875Z" fill="#1B2149"/>
<path d="M59.7734 16.1328C60.4629 16.1328 60.4629 16.1328 60.7031 16.2969C60.746 16.3251 60.7888 16.3533 60.833 16.3823C60.9759 16.5966 60.9547 16.813 60.9219 17.0625C60.8501 17.2499 60.7845 17.3161 60.6245 17.4351C60.4297 17.5 60.4297 17.5 59.7734 17.5C59.7734 17.0488 59.7734 16.5977 59.7734 16.1328Z" fill="#1B2149"/>
</g>
<defs>
<clipPath id="clip0_190_2392">
<rect width="78.2031" height="28" fill="white"/>
</clipPath>
</defs>
</svg>
