<svg width="150" height="28" viewBox="0 0 150 28" fill="none" xmlns="http://www.w3.org/2000/svg">
<path d="M53.7852 0.457961C53.9417 0.518354 54.0667 0.599776 54.2055 0.694201C54.6695 1.00199 55.1533 1.27368 55.6396 1.54412C55.6789 1.56614 55.7183 1.58816 55.7588 1.61084C56.7126 2.1412 57.7215 2.53401 58.755 2.87928C58.7389 2.95845 58.7389 2.95845 58.7225 3.03922C58.4452 4.48725 58.6737 5.89286 59.4967 7.13198C60.2148 8.14867 61.3539 8.8079 62.5665 9.04026C63.5578 9.14393 64.4414 9.07951 65.3523 8.66745C65.4779 8.6164 65.5945 8.59072 65.7274 8.56604C65.7309 9.31668 65.7335 10.0673 65.7351 10.818C65.7359 11.1667 65.7369 11.5153 65.7386 11.864C65.7401 12.1687 65.7411 12.4733 65.7414 12.778C65.7416 12.9386 65.7421 13.0993 65.7431 13.2599C65.7507 14.5115 65.6779 15.7283 65.2824 16.9231C65.2688 16.9642 65.2553 17.0053 65.2413 17.0476C64.8735 18.133 64.3614 19.2486 63.7 20.1868C63.6772 20.2193 63.6544 20.2518 63.6309 20.2853C63.2232 20.8603 62.7646 21.3709 62.2659 21.8681C62.2101 21.925 62.1544 21.9819 62.0986 22.0389C61.7847 22.3583 61.4713 22.6664 61.1191 22.9442C60.9538 23.076 60.794 23.2134 60.6341 23.3516C60.1299 23.7853 59.612 24.1991 59.0857 24.6054C58.9411 24.7173 58.7979 24.8304 58.6561 24.9458C57.6565 25.7526 56.5527 26.4659 55.4418 27.1098C55.4091 27.1288 55.3764 27.1478 55.3427 27.1673C55.1472 27.2801 54.9504 27.3903 54.7524 27.4987C54.6427 27.5592 54.5338 27.6212 54.4248 27.6831C54.3497 27.7249 54.2745 27.7666 54.1994 27.8083C54.1648 27.8282 54.1303 27.8482 54.0947 27.8687C54.0618 27.8866 54.0289 27.9046 53.995 27.923C53.9664 27.9391 53.9377 27.9552 53.9082 27.9717C53.6736 28.039 53.4634 27.9374 53.2594 27.8259C53.2119 27.8001 53.1644 27.7743 53.1155 27.7478C53.0652 27.7198 53.0149 27.6918 52.9631 27.663C52.9105 27.6341 52.8578 27.6052 52.8036 27.5753C52.3073 27.3006 51.8196 27.0131 51.3374 26.7142C51.2932 26.6869 51.249 26.6595 51.2034 26.6314C50.6048 26.2599 50.0252 25.8701 49.4586 25.4516C49.3659 25.3838 49.2724 25.3174 49.1783 25.2516C48.7569 24.9572 48.3586 24.6395 47.9622 24.3125C47.853 24.2228 47.7425 24.1348 47.6318 24.047C47.1183 23.6368 46.6063 23.2247 46.1249 22.7769C46.0222 22.6826 45.9181 22.5912 45.8126 22.5001C45.1859 21.9531 44.6051 21.3557 44.1177 20.6813C44.0943 20.6496 44.0708 20.6179 44.0466 20.5853C42.777 18.8704 41.7307 16.7522 41.7382 14.5759C41.7381 14.5303 41.7381 14.4848 41.7381 14.4378C41.738 14.286 41.7382 14.1341 41.7385 13.9823C41.7385 13.8731 41.7385 13.7639 41.7385 13.6547C41.7385 13.3589 41.7388 13.063 41.7391 12.7672C41.7394 12.4578 41.7395 12.1484 41.7395 11.839C41.7396 11.3199 41.74 10.8007 41.7404 10.2816C41.7409 9.74708 41.7412 9.21253 41.7414 8.67798C41.7414 8.64499 41.7414 8.61201 41.7414 8.57803C41.7415 8.41256 41.7416 8.24708 41.7416 8.08161C41.7422 6.71013 41.743 5.33866 41.7441 3.96718C41.7741 3.96689 41.8041 3.9666 41.835 3.9663C42.1544 3.96307 42.4738 3.95889 42.7933 3.9542C42.9116 3.95258 43.0299 3.95119 43.1482 3.95005C46.7198 3.91472 50.2232 2.75935 53.1785 0.760456C53.2103 0.739186 53.2421 0.717915 53.2749 0.696C53.358 0.64014 53.4403 0.583191 53.5225 0.526148C53.6616 0.456222 53.6616 0.456222 53.7852 0.457961Z" fill="#E32A20"/>
<path d="M53.7852 0.457961C53.9417 0.518354 54.0667 0.599776 54.2055 0.694201C54.6695 1.00199 55.1533 1.27368 55.6396 1.54412C55.6789 1.56614 55.7183 1.58816 55.7588 1.61084C56.7126 2.1412 57.7215 2.53401 58.755 2.87928C58.7328 3.02669 58.7101 3.17397 58.687 3.32124C58.6807 3.36328 58.6745 3.40532 58.668 3.44863C58.6617 3.48863 58.6553 3.52863 58.6487 3.56984C58.643 3.60687 58.6373 3.6439 58.6315 3.68206C58.6233 3.71087 58.6151 3.73969 58.6066 3.76938C58.3526 3.8964 57.8789 3.65462 57.6214 3.57329C56.472 3.18687 55.4047 2.61047 54.3653 1.9942C54.3206 1.96782 54.2758 1.94145 54.2298 1.91428C54.1534 1.8687 54.0774 1.82232 54.0023 1.77471C53.8458 1.67052 53.8458 1.67052 53.6656 1.65504C53.5481 1.6978 53.4529 1.75315 53.3475 1.82054C53.3059 1.84683 53.2643 1.87312 53.2215 1.90021C53.177 1.92855 53.1325 1.95689 53.0867 1.98608C51.4587 3.00555 49.778 3.75501 47.9254 4.26388C47.8768 4.27727 47.8283 4.29067 47.7783 4.30447C47.1233 4.48383 46.4668 4.63537 45.799 4.75838C45.7205 4.77349 45.7205 4.77349 45.6404 4.7889C45.4958 4.8152 45.3513 4.83721 45.2056 4.85728C45.1739 4.86174 45.1422 4.8662 45.1095 4.8708C44.3024 4.97991 43.4962 4.96407 42.6837 4.95618C42.6851 5.00598 42.6865 5.05578 42.688 5.1071C42.7242 6.41518 42.7377 7.72284 42.7414 9.03135C42.7421 9.2413 42.7428 9.45125 42.7436 9.6612C42.7461 10.3556 42.7485 11.0499 42.7492 11.7443C42.7497 12.1333 42.7508 12.5223 42.7527 12.9113C42.7536 13.1149 42.7543 13.3184 42.754 13.5219C42.7529 14.6323 42.8124 15.6888 43.1813 16.7469C43.2098 16.8302 43.2098 16.8302 43.2389 16.9152C43.9132 18.8271 45.1354 20.5665 46.6837 21.8766C46.7973 21.975 46.9069 22.0769 47.0167 22.1795C47.326 22.4684 47.6443 22.7409 47.9748 23.0055C48.0614 23.0765 48.148 23.1475 48.2344 23.2187C48.3292 23.296 48.424 23.3733 48.5188 23.4505C48.5455 23.4724 48.5723 23.4942 48.5998 23.5167C49.1203 23.9412 49.6561 24.3425 50.2001 24.7362C50.2351 24.7617 50.2702 24.7872 50.3063 24.8135C51.1869 25.4526 52.1077 26.0245 53.058 26.5537C53.1545 26.6082 53.2495 26.6642 53.3442 26.7216C53.3918 26.7497 53.4395 26.7779 53.4885 26.8069C53.5268 26.8303 53.565 26.8536 53.6044 26.8776C53.7543 26.926 53.8162 26.8779 53.9583 26.8131C54.0571 26.7607 54.155 26.7066 54.2523 26.6512C54.2801 26.6354 54.308 26.6196 54.3366 26.6034C54.427 26.5519 54.5172 26.5002 54.6073 26.4484C54.6383 26.4307 54.6693 26.4129 54.7012 26.3947C56.1125 25.5849 57.5001 24.6869 58.7284 23.6155C58.8619 23.4995 58.997 23.3854 59.132 23.2713C59.1587 23.2487 59.1853 23.2261 59.2128 23.2028C59.3842 23.0578 59.5573 22.9152 59.7316 22.7737C59.9315 22.611 60.1248 22.4429 60.3161 22.2702C60.4372 22.164 60.5617 22.0638 60.6878 21.9635C60.9864 21.7199 61.2591 21.4555 61.5303 21.182C61.576 21.1367 61.6217 21.0913 61.6688 21.0446C61.9715 20.7411 62.2478 20.4243 62.5132 20.0879C62.5539 20.0373 62.5946 19.9867 62.6366 19.9345C63.6136 18.6646 64.3005 17.0832 64.5694 15.5059C64.5834 15.4276 64.5985 15.3495 64.6148 15.2716C64.6849 14.925 64.704 14.5927 64.7047 14.2397C64.7052 14.1818 64.7057 14.1238 64.7062 14.0641C64.7078 13.8744 64.7086 13.6847 64.7094 13.495C64.7104 13.3627 64.7113 13.2305 64.7123 13.0982C64.7146 12.7869 64.7165 12.4755 64.7181 12.1641C64.72 11.8093 64.7225 11.4545 64.7249 11.0996C64.73 10.3705 64.7344 9.64134 64.7384 8.91219C64.8046 8.88714 64.8046 8.88714 64.8721 8.86158C64.93 8.83952 64.9878 8.81747 65.0475 8.79474C65.1048 8.77294 65.1622 8.75114 65.2213 8.72868C65.3751 8.67051 65.3751 8.67051 65.4918 8.60737C65.5791 8.56604 65.5791 8.56604 65.7274 8.56604C65.7309 9.31668 65.7335 10.0673 65.7351 10.818C65.7359 11.1667 65.7369 11.5153 65.7386 11.864C65.7401 12.1687 65.7411 12.4733 65.7414 12.778C65.7416 12.9386 65.7421 13.0993 65.7431 13.2599C65.7507 14.5115 65.6779 15.7283 65.2824 16.9231C65.2688 16.9642 65.2553 17.0053 65.2413 17.0476C64.8735 18.133 64.3614 19.2486 63.7 20.1868C63.6772 20.2193 63.6544 20.2518 63.6309 20.2853C63.2232 20.8603 62.7646 21.3709 62.2659 21.8681C62.2101 21.925 62.1544 21.9819 62.0986 22.0389C61.7847 22.3583 61.4713 22.6664 61.1191 22.9442C60.9538 23.076 60.794 23.2134 60.6341 23.3516C60.1299 23.7853 59.612 24.1991 59.0857 24.6054C58.9411 24.7173 58.7979 24.8304 58.6561 24.9458C57.6565 25.7526 56.5527 26.4659 55.4418 27.1098C55.4091 27.1288 55.3764 27.1478 55.3427 27.1673C55.1472 27.2801 54.9504 27.3903 54.7524 27.4987C54.6427 27.5592 54.5338 27.6212 54.4248 27.6831C54.3497 27.7249 54.2745 27.7666 54.1994 27.8083C54.1648 27.8282 54.1303 27.8482 54.0947 27.8687C54.0618 27.8866 54.0289 27.9046 53.995 27.923C53.9664 27.9391 53.9377 27.9552 53.9082 27.9717C53.6736 28.039 53.4634 27.9374 53.2594 27.8259C53.2119 27.8001 53.1644 27.7743 53.1155 27.7478C53.0652 27.7198 53.0149 27.6918 52.9631 27.663C52.9105 27.6341 52.8578 27.6052 52.8036 27.5753C52.3073 27.3006 51.8196 27.0131 51.3374 26.7142C51.2932 26.6869 51.249 26.6595 51.2034 26.6314C50.6048 26.2599 50.0252 25.8701 49.4586 25.4516C49.3659 25.3838 49.2724 25.3174 49.1783 25.2516C48.7569 24.9572 48.3586 24.6395 47.9622 24.3125C47.853 24.2228 47.7425 24.1348 47.6318 24.047C47.1183 23.6368 46.6063 23.2247 46.1249 22.7769C46.0222 22.6826 45.9181 22.5912 45.8126 22.5001C45.1859 21.9531 44.6051 21.3557 44.1177 20.6813C44.0943 20.6496 44.0708 20.6179 44.0466 20.5853C42.777 18.8704 41.7307 16.7522 41.7382 14.5759C41.7381 14.5303 41.7381 14.4848 41.7381 14.4378C41.738 14.286 41.7382 14.1341 41.7385 13.9823C41.7385 13.8731 41.7385 13.7639 41.7385 13.6547C41.7385 13.3589 41.7388 13.063 41.7391 12.7672C41.7394 12.4578 41.7395 12.1484 41.7395 11.839C41.7396 11.3199 41.74 10.8007 41.7404 10.2816C41.7409 9.74708 41.7412 9.21253 41.7414 8.67798C41.7414 8.64499 41.7414 8.61201 41.7414 8.57803C41.7415 8.41256 41.7416 8.24708 41.7416 8.08161C41.7422 6.71013 41.743 5.33866 41.7441 3.96718C41.7741 3.96689 41.8041 3.9666 41.835 3.9663C42.1544 3.96307 42.4738 3.95889 42.7933 3.9542C42.9116 3.95258 43.0299 3.95119 43.1482 3.95005C46.7198 3.91472 50.2232 2.75935 53.1785 0.760456C53.2103 0.739186 53.2421 0.717915 53.2749 0.696C53.358 0.64014 53.4403 0.583191 53.5225 0.526148C53.6616 0.456222 53.6616 0.456222 53.7852 0.457961Z" fill="#091113"/>
<path d="M66.0118 0.86736C66.083 0.926788 66.153 0.98769 66.2219 1.04971C66.2655 1.08872 66.3091 1.12773 66.3541 1.16792C67.1266 1.89773 67.5909 2.86842 67.6678 3.93249C67.6929 5.09988 67.2957 6.21316 66.4856 7.06601C66.4476 7.10412 66.4095 7.14224 66.3703 7.18152C66.3328 7.21964 66.2952 7.25776 66.2565 7.29703C65.4376 8.08246 64.3595 8.38579 63.2455 8.37585C62.1384 8.33157 61.1097 7.81473 60.3484 7.01752C59.5572 6.06223 59.2443 4.89557 59.3578 3.66757C59.4843 2.60053 60.0604 1.58284 60.8993 0.912754C61.2619 0.637252 61.6414 0.420865 62.0681 0.258506C62.1192 0.238108 62.1703 0.21771 62.2229 0.196693C63.518 -0.23552 64.9346 0.0695177 66.0118 0.86736Z" fill="#108C44"/>
<path d="M57.3704 6.09355C57.4934 6.2781 57.4818 6.3727 57.4821 6.59333C57.4823 6.62935 57.4825 6.66537 57.4827 6.70248C57.4832 6.82353 57.483 6.94457 57.4828 7.06562C57.4831 7.1523 57.4833 7.23897 57.4836 7.32564C57.4843 7.56148 57.4843 7.79731 57.4842 8.03314C57.4841 8.23022 57.4844 8.4273 57.4846 8.62438C57.4851 9.08982 57.4852 9.55526 57.4849 10.0207C57.4846 10.4999 57.4852 10.979 57.4862 11.4582C57.4871 11.8701 57.4874 12.2819 57.4872 12.6938C57.4871 12.9395 57.4873 13.1853 57.488 13.431C57.4886 13.6626 57.4885 13.8942 57.4878 14.1258C57.4877 14.2104 57.4879 14.295 57.4883 14.3796C57.4916 15.1079 57.453 15.8186 56.9309 16.3807C56.4753 16.8032 55.9649 16.9592 55.3483 16.9413C54.8755 16.9104 54.5025 16.6825 54.166 16.36C53.7255 15.8366 53.6642 15.2761 53.6979 14.6211C53.742 14.2141 53.991 13.8654 54.2904 13.598C54.8123 13.1965 55.2789 13.1743 55.9156 13.1928C56.0352 13.2144 56.0352 13.2144 56.3319 13.3627C56.3319 12.0409 56.3319 10.7191 56.3319 9.35725C55.5349 9.59924 55.5349 9.59924 54.7402 9.84866C54.3424 9.97494 53.9423 10.0923 53.5411 10.2072C53.4549 10.2319 53.4549 10.2319 53.3671 10.2571C53.3114 10.2729 53.2556 10.2888 53.1982 10.3051C53.1493 10.319 53.1004 10.3329 53.05 10.3473C52.8878 10.391 52.7254 10.4323 52.5625 10.4729C52.509 10.4862 52.4556 10.4996 52.4005 10.5133C52.3597 10.5235 52.319 10.5336 52.277 10.5441C52.2771 10.5767 52.2772 10.6093 52.2773 10.6429C52.2795 11.4388 52.2811 12.2346 52.2821 13.0304C52.2826 13.4153 52.2833 13.8001 52.2845 14.185C52.2854 14.5206 52.2861 14.8563 52.2863 15.1919C52.2864 15.3694 52.2867 15.547 52.2875 15.7245C52.2883 15.9232 52.2883 16.122 52.2882 16.3207C52.2886 16.3789 52.2889 16.437 52.2893 16.4969C52.2876 17.1919 52.1629 17.8546 51.6714 18.3807C51.2167 18.7757 50.7206 18.9331 50.1259 18.9183C49.5581 18.8619 49.1051 18.5624 48.7467 18.1285C48.4116 17.6338 48.3366 17.0802 48.4435 16.498C48.4763 16.3857 48.5171 16.2865 48.5682 16.1814C48.5876 16.1408 48.6069 16.1003 48.6268 16.0585C48.8725 15.5991 49.2545 15.2823 49.7523 15.1244C50.1508 15.0428 50.5269 15.038 50.9044 15.194C50.9706 15.2212 50.9706 15.2212 51.0382 15.2489C51.0884 15.2699 51.0884 15.2699 51.1396 15.2913C51.1394 15.254 51.1392 15.2168 51.139 15.1784C51.1335 14.2725 51.1294 13.3666 51.1268 12.4607C51.1256 12.0226 51.1238 11.5846 51.121 11.1465C51.1185 10.7647 51.1169 10.3828 51.1164 10.001C51.1161 9.79882 51.1153 9.59665 51.1135 9.39446C51.1118 9.20414 51.1113 9.01385 51.1117 8.82352C51.1116 8.75368 51.1111 8.68385 51.1102 8.61403C51.1025 8.02014 51.1025 8.02014 51.2552 7.85925C51.4094 7.76045 51.5481 7.70582 51.724 7.65432C51.7572 7.64434 51.7904 7.63437 51.8247 7.6241C51.9351 7.59118 52.0457 7.5594 52.1565 7.5276C52.2352 7.50434 52.314 7.481 52.3927 7.4576C52.5616 7.40755 52.7307 7.35798 52.8998 7.30879C53.1724 7.2295 53.4445 7.14898 53.7167 7.06825C54.0854 6.95895 54.4542 6.85003 54.8231 6.74142C55.2862 6.60501 55.749 6.46726 56.2114 6.32843C56.2725 6.3101 56.3336 6.29177 56.3966 6.27288C57.0589 6.07377 57.0589 6.07377 57.3704 6.09355Z" fill="#091113"/>
<path d="M48.1726 8.26933C48.4465 8.42148 48.4465 8.42148 48.5188 8.56603C48.5544 8.77444 48.5134 8.88877 48.3982 9.05744C48.3713 9.09524 48.3444 9.13304 48.3167 9.17199C47.4974 10.3475 46.8821 11.7641 47.1404 13.2143C47.2701 13.8634 47.5311 14.4422 47.8635 15.0121C48.0078 15.269 48.058 15.441 48.0243 15.7363C47.9641 15.8849 47.905 15.9241 47.777 16.033C47.6132 16.0732 47.6132 16.0732 47.4309 16.033C46.944 15.7273 46.7049 15.2079 46.5099 14.6886C46.4908 14.6387 46.4717 14.5888 46.452 14.5374C45.8308 12.8912 46.0037 11.4295 46.7077 9.83937C47.4496 8.20908 47.4496 8.20908 48.1726 8.26933Z" fill="#091114"/>
<path d="M60.4424 9.08538C61.1778 9.72481 61.6128 10.9903 61.6849 11.9449C61.7225 12.8242 61.6647 13.6134 61.3758 14.4507C61.354 14.5166 61.354 14.5166 61.3317 14.5838C61.1619 15.0903 60.952 15.5688 60.699 16.0393C60.6766 16.0812 60.6543 16.1231 60.6313 16.1663C60.5128 16.3779 60.4231 16.532 60.189 16.6265C60.0518 16.6577 59.9311 16.6557 59.7934 16.6265C59.645 16.5245 59.645 16.5245 59.5461 16.3793C59.5163 16.0992 59.5862 15.9143 59.7192 15.6746C59.7559 15.6045 59.7923 15.5342 59.8286 15.4639C59.8567 15.4092 59.8567 15.4092 59.8855 15.3535C60.5268 14.0817 60.9318 12.6364 60.4981 11.2395C60.3173 10.7247 60.0768 10.1987 59.6624 9.82848C59.553 9.70485 59.5527 9.57784 59.5394 9.418C59.5498 9.24889 59.6202 9.17063 59.7439 9.06065C59.998 8.97596 60.2034 8.97063 60.4424 9.08538Z" fill="#091114"/>
<path d="M65.6285 2.13751C65.8605 2.30152 66.0927 2.47268 66.1478 2.76181C66.1099 3.01736 65.9521 3.14294 65.7769 3.32431C65.7097 3.39932 65.6428 3.47454 65.576 3.54992C65.3551 3.79486 65.1302 4.03591 64.9048 4.27672C64.7167 4.47775 64.5294 4.67947 64.3428 4.88199C64.2701 4.96074 64.1974 5.03949 64.1247 5.11823C64.069 5.17857 64.0135 5.23897 63.9579 5.29941C63.8659 5.39944 63.7737 5.49924 63.6814 5.59901C63.6532 5.62983 63.625 5.66065 63.5959 5.69241C63.1487 6.1747 63.1487 6.1747 62.8655 6.2295C62.5974 6.21262 62.4471 6.02597 62.2659 5.84626C62.2087 5.79929 62.1511 5.75285 62.0929 5.70718C62.0521 5.67149 62.0113 5.63579 61.9692 5.59901C61.9692 5.56638 61.9692 5.53374 61.9692 5.50011C61.9407 5.48771 61.9123 5.47532 61.8829 5.46254C61.7565 5.39298 61.6716 5.31344 61.57 5.21114C61.5329 5.17398 61.4958 5.13681 61.4576 5.09852C61.4194 5.0597 61.3812 5.02088 61.3418 4.98089C61.303 4.94207 61.2643 4.90325 61.2243 4.86325C60.8873 4.52362 60.8873 4.52362 60.8659 4.30095C60.8841 4.08285 60.9423 3.98692 61.0791 3.81881C61.2292 3.71879 61.2697 3.70432 61.4407 3.70137C61.4955 3.69926 61.4955 3.69926 61.5514 3.69712C61.8995 3.76263 62.1472 4.0839 62.3834 4.32567C62.4198 4.36252 62.4562 4.39936 62.4937 4.43732C62.5828 4.52763 62.6717 4.61816 62.7604 4.70891C62.9146 4.64099 63.0135 4.5646 63.1276 4.44119C63.1589 4.40759 63.1902 4.374 63.2224 4.33939C63.2545 4.30426 63.2867 4.26914 63.3198 4.23295C63.3514 4.19898 63.383 4.165 63.4155 4.13C63.5715 3.96153 63.7249 3.79114 63.8756 3.61792C64.0414 3.42728 64.2128 3.24244 64.3861 3.05851C64.6285 2.80042 64.8672 2.53998 65.1008 2.27388C65.262 2.10441 65.4012 2.10504 65.6285 2.13751Z" fill="#FCFDFC"/>
<path d="M49.31 9.80237C49.4521 9.88273 49.4521 9.88273 49.5572 10.0002C49.6234 10.2703 49.5966 10.4243 49.4799 10.6739C49.4665 10.7036 49.453 10.7332 49.4391 10.7637C49.3706 10.9137 49.2987 11.062 49.2275 11.2107C49.2017 11.2651 49.1758 11.3195 49.1492 11.3755C49.1255 11.4238 49.1018 11.472 49.0774 11.5217C48.844 12.1031 48.8025 12.8332 49.0256 13.4215C49.1014 13.5922 49.1865 13.7553 49.276 13.9191C49.3823 14.1252 49.4093 14.322 49.3594 14.5496C49.2427 14.7144 49.1554 14.779 48.97 14.8556C48.788 14.8446 48.6931 14.793 48.5616 14.6674C47.928 13.8588 47.8516 12.87 47.9254 11.8793C47.9604 11.6218 48.0344 11.3814 48.1232 11.1375C48.1411 11.0831 48.159 11.0287 48.1774 10.9726C48.3102 10.5936 48.5204 10.0176 48.8665 9.78402C49.027 9.73275 49.1485 9.76271 49.31 9.80237Z" fill="#091114"/>
<path d="M59.0517 10.2473C59.5288 10.5432 59.7642 11.16 59.8969 11.6849C59.9965 12.1509 59.9556 12.642 59.9418 13.1154C59.9407 13.1724 59.9396 13.2294 59.9385 13.2881C59.8907 13.8119 59.5448 14.5091 59.1683 14.8738C59.0065 14.9727 58.8954 14.9979 58.7055 14.9945C58.532 14.8975 58.4197 14.7637 58.3099 14.5989C58.3209 14.3267 58.4004 14.161 58.551 13.9375C58.8885 13.4192 59.0106 12.893 58.9528 12.2748C58.8496 11.8511 58.6608 11.4694 58.4337 11.0997C58.3052 10.879 58.2951 10.7401 58.3594 10.4946C58.5572 10.201 58.7108 10.1573 59.0517 10.2473Z" fill="#091114"/>
<path d="M42.5353 17.665C42.6342 17.7145 42.6342 17.7145 42.6672 17.7986C42.6775 17.8347 42.6878 17.8708 42.6984 17.908C42.784 18.1794 42.9083 18.4222 43.0422 18.6726C43.0786 18.7413 43.0786 18.7413 43.1158 18.8114C43.2871 19.1316 43.4681 19.4416 43.6727 19.7419C43.746 19.85 43.8191 19.9582 43.8921 20.0665C43.9425 20.14 43.9425 20.14 43.9939 20.215C44.0683 20.3353 44.0683 20.3353 44.0683 20.4342C44.1173 20.4342 44.1662 20.4342 44.2167 20.4342C44.2275 20.4684 44.2383 20.5026 44.2495 20.5378C44.3336 20.7207 44.449 20.8528 44.5813 21.0029C44.6292 21.058 44.6769 21.1131 44.7247 21.1683C44.7476 21.1945 44.7705 21.2208 44.7942 21.2479C44.8546 21.3186 44.9122 21.3917 44.9696 21.465C45.0484 21.5755 45.0484 21.5755 45.1562 21.621C45.1562 21.6537 45.1562 21.6863 45.1562 21.7199C45.1857 21.7326 45.2151 21.7452 45.2454 21.7582C45.3654 21.8252 45.4236 21.891 45.5085 21.9981C45.6799 22.2016 45.8718 22.3582 46.0817 22.5206C46.2121 22.6239 46.3259 22.7382 46.4419 22.8573C46.5554 22.9584 46.6716 23.0563 46.7881 23.154C46.816 23.1778 46.8439 23.2016 46.8727 23.226C47.0193 23.3513 47.0193 23.3513 47.1837 23.4507C47.1837 23.4833 47.1837 23.516 47.1837 23.5496C47.2107 23.5613 47.2377 23.5729 47.2656 23.5849C47.4117 23.6651 47.527 23.7655 47.6534 23.8741C47.8967 24.0804 48.1463 24.2749 48.4027 24.4648C48.6391 24.64 48.872 24.8198 49.1054 24.9989C49.2065 25.0763 49.3076 25.1537 49.4089 25.2309C49.4442 25.2579 49.4796 25.2849 49.516 25.3127C49.5506 25.3389 49.5852 25.3652 49.6208 25.3922C49.6517 25.4157 49.6827 25.4392 49.7145 25.4634C49.8028 25.5264 49.8921 25.5801 49.9869 25.6327C50.1382 25.7184 50.263 25.8145 50.3979 25.9232C50.4469 25.9395 50.4958 25.9558 50.5463 25.9727C50.5463 26.0053 50.5463 26.0379 50.5463 26.0716C50.5952 26.0716 50.6442 26.0716 50.6946 26.0716C50.6946 26.1042 50.6946 26.1368 50.6946 26.1705C50.7285 26.1827 50.7624 26.1949 50.7974 26.2075C50.9664 26.2798 51.1195 26.3711 51.2757 26.4672C51.3415 26.5072 51.4074 26.5472 51.4733 26.5871C51.5075 26.6079 51.5418 26.6287 51.5772 26.6502C51.7927 26.7802 52.0102 26.907 52.2274 27.0342C52.417 27.1454 52.6056 27.2581 52.7931 27.3727C52.9958 27.4953 53.2044 27.6016 53.4177 27.7044C53.5133 27.7529 53.5133 27.7529 53.5627 27.8023C53.7602 27.8258 53.8782 27.8014 54.0449 27.7003C54.0979 27.6687 54.1509 27.6371 54.2056 27.6045C54.2382 27.6208 54.2708 27.6371 54.3045 27.654C54.1563 27.8192 54.0182 27.921 53.81 28.0001C53.6 27.9805 53.4436 27.9267 53.2594 27.8261C53.212 27.8003 53.1645 27.7745 53.1155 27.7479C53.0652 27.72 53.0149 27.692 52.9631 27.6632C52.9105 27.6343 52.8578 27.6053 52.8036 27.5755C52.3073 27.3008 51.8196 27.0133 51.3375 26.7144C51.2932 26.6871 51.249 26.6597 51.2034 26.6315C50.6048 26.2601 50.0252 25.8703 49.4586 25.4518C49.3659 25.384 49.2724 25.3175 49.1783 25.2518C48.757 24.9574 48.3586 24.6397 47.9622 24.3127C47.853 24.223 47.7425 24.135 47.6318 24.0472C47.1183 23.6369 46.6063 23.2249 46.1249 22.7771C46.0222 22.6828 45.9182 22.5914 45.8126 22.5003C45.1859 21.9533 44.6052 21.3559 44.1178 20.6815C44.0943 20.6498 44.0708 20.6181 44.0466 20.5855C43.4713 19.8082 43.0053 18.9795 42.5848 18.1101C42.5646 18.0731 42.5444 18.036 42.5236 17.9979C42.4698 17.8757 42.5005 17.7904 42.5353 17.665Z" fill="#080A0A"/>
<path d="M41.7441 3.96729C42.609 3.96729 43.4739 3.96729 44.365 3.96729C44.365 3.99992 44.365 4.03256 44.365 4.06619C43.5327 4.06619 42.7005 4.06619 41.843 4.06619C41.8466 4.25264 41.8502 4.43909 41.8538 4.63119C41.8888 6.59501 41.8981 8.55873 41.8986 10.5228C41.8986 10.7623 41.8988 11.0017 41.899 11.2411C41.8993 11.5694 41.8993 11.8977 41.8991 12.226C41.8991 12.3479 41.8991 12.4697 41.8992 12.5916C41.8997 13.279 41.8884 13.9625 41.843 14.6485C41.8267 14.6485 41.8104 14.6485 41.7936 14.6485C41.7847 13.9531 41.7765 13.2577 41.7689 12.5623C41.7683 12.5091 41.7677 12.4559 41.7671 12.4011C41.7458 10.4521 41.7398 8.50327 41.741 6.55414C41.7411 6.48915 41.7411 6.42416 41.7412 6.35719C41.7417 5.56056 41.7429 4.76392 41.7441 3.96729Z" fill="#08090A"/>
<path d="M57.4692 6.19263C57.5019 6.20895 57.5345 6.22526 57.5681 6.24208C57.5704 7.4104 57.5722 8.57871 57.5732 9.74703C57.5738 10.2895 57.5744 10.832 57.5756 11.3744C57.5766 11.8472 57.5772 12.32 57.5774 12.7928C57.5776 13.0432 57.5779 13.2935 57.5786 13.5439C57.5792 13.7795 57.5795 14.0152 57.5793 14.2508C57.5793 14.3373 57.5795 14.4238 57.5799 14.5103C57.5804 14.6284 57.5803 14.7465 57.58 14.8646C57.5803 14.8988 57.5806 14.933 57.5809 14.9681C57.5796 15.1763 57.5449 15.345 57.4692 15.5387C57.4529 15.5387 57.4366 15.5387 57.4198 15.5387C57.4361 12.4545 57.4524 9.37029 57.4692 6.19263Z" fill="#F62D1E"/>
<path d="M41.7441 3.96729C42.609 3.96729 43.4739 3.96729 44.365 3.96729C44.365 3.99992 44.365 4.03256 44.365 4.06619C43.5327 4.06619 42.7005 4.06619 41.843 4.06619C41.843 5.91018 41.843 7.75417 41.843 9.65405C41.8267 9.65405 41.8104 9.65405 41.7936 9.65405C41.7772 7.77741 41.7609 5.90078 41.7441 3.96729Z" fill="black"/>
<path d="M63.3044 20.4341C63.3533 20.4586 63.3533 20.4586 63.4033 20.4835C63.3279 20.728 63.1836 20.8867 63.0169 21.0738C62.9651 21.133 62.9132 21.1922 62.8614 21.2514C62.8361 21.28 62.8108 21.3087 62.7847 21.3383C62.7147 21.4188 62.6469 21.5007 62.5794 21.5834C62.4851 21.6945 62.3964 21.7855 62.2844 21.8774C62.1156 22.0209 61.9603 22.1733 61.8054 22.3317C61.5912 22.5495 61.3662 22.746 61.1272 22.9361C60.923 23.1012 60.7254 23.2736 60.5281 23.447C60.3731 23.5815 60.2215 23.6971 60.0406 23.7967C60.1081 23.5822 60.1941 23.4873 60.3713 23.3516C60.6076 23.1657 60.8371 22.9744 61.0636 22.7768C61.0936 22.7508 61.1235 22.7248 61.1543 22.698C61.2141 22.6459 61.2738 22.5938 61.3335 22.5416C61.3957 22.4873 61.4581 22.4333 61.5208 22.3796C61.7741 22.1611 62.0138 21.9314 62.2505 21.6951C62.2867 21.6594 62.3229 21.6238 62.3603 21.5871C62.5234 21.4244 62.674 21.2656 62.8046 21.0754C62.839 21.0269 62.8734 20.9785 62.9088 20.9286C62.9414 20.9286 62.974 20.9286 63.0077 20.9286C63.0199 20.9021 63.0321 20.8755 63.0447 20.8482C63.1212 20.7029 63.2119 20.5697 63.3044 20.4341Z" fill="#090A0A"/>
<path d="M53.9089 0.505742C54.01 0.564889 54.1087 0.628371 54.2056 0.694271C54.9638 1.19733 55.7715 1.62147 56.5792 2.03869C56.5628 2.08765 56.5465 2.13661 56.5297 2.18705C56.0772 1.98064 55.6352 1.77165 55.2104 1.51194C55.0941 1.4392 55.0941 1.4392 54.9473 1.39584C54.9473 1.36321 54.9473 1.33057 54.9473 1.29694C54.9157 1.28572 54.8841 1.27451 54.8515 1.26295C54.644 1.17403 54.4509 1.0626 54.255 0.950793C54.255 0.918156 54.255 0.885519 54.255 0.851893C54.2137 0.844244 54.2137 0.844244 54.1716 0.83644C54.0572 0.802443 54.0572 0.802443 53.9367 0.722086C53.8157 0.642531 53.8157 0.642531 53.6863 0.663364C53.56 0.704424 53.4376 0.750115 53.3155 0.802443C53.3669 0.666732 53.413 0.605695 53.5287 0.515014C53.6909 0.443351 53.7409 0.455345 53.9089 0.505742Z" fill="#090A0A"/>
<path d="M41.7441 9.75293C41.7604 9.75293 41.7767 9.75293 41.7936 9.75293C41.8099 11.0584 41.8262 12.3639 41.843 13.7089C41.8593 13.7089 41.8756 13.7089 41.8925 13.7089C41.8925 14.2801 41.8925 14.8512 41.8925 15.4397C41.8598 15.4397 41.8272 15.4397 41.7936 15.4397C41.7475 15.1289 41.7373 14.8273 41.7385 14.5135C41.7385 14.4618 41.7385 14.4101 41.7385 14.3569C41.7385 14.1873 41.7389 14.0176 41.7393 13.848C41.7394 13.73 41.7394 13.6119 41.7395 13.4938C41.7397 13.1839 41.7402 12.874 41.7407 12.5641C41.7412 12.2476 41.7414 11.931 41.7417 11.6145C41.7422 10.9939 41.7431 10.3734 41.7441 9.75293Z" fill="#494949"/>
<path d="M61.6231 3.62097C61.6557 3.6536 61.6883 3.68624 61.722 3.71987C61.6727 3.72092 61.6727 3.72092 61.6225 3.72199C61.3263 3.73771 61.3263 3.73771 61.076 3.88985C60.9237 4.09131 60.8979 4.20667 60.9308 4.46162C61.0258 4.61289 61.1505 4.73186 61.2769 4.85722C61.3275 4.90894 61.378 4.96071 61.4285 5.01252C61.6757 5.28749 61.6757 5.28749 61.9692 5.50007C61.9692 5.53271 61.9692 5.56534 61.9692 5.59897C61.9981 5.61127 62.027 5.62358 62.0567 5.63625C62.1821 5.7063 62.2542 5.78546 62.3494 5.89258C62.5472 6.09787 62.7321 6.18059 63.0077 6.24182C63.0077 6.25814 63.0077 6.27446 63.0077 6.29127C62.6534 6.31771 62.6534 6.31771 62.4749 6.20357C62.4325 6.16112 62.39 6.11867 62.3463 6.07493C62.3223 6.05149 62.2983 6.02806 62.2735 6.00391C62.1875 5.91939 62.1031 5.83338 62.0187 5.74732C61.9435 5.67205 61.8683 5.59685 61.793 5.5217C61.6753 5.40416 61.5578 5.28647 61.441 5.16795C61.2847 5.00968 61.1307 4.85503 60.9566 4.71621C60.8319 4.60997 60.8319 4.60997 60.7824 4.46162C60.7759 4.27945 60.774 4.14066 60.8319 3.96712C60.8645 3.96712 60.8971 3.96712 60.9308 3.96712C60.943 3.93754 60.9552 3.90796 60.9678 3.87749C61.1298 3.59399 61.3215 3.59665 61.6231 3.62097Z" fill="#06781E"/>
<path d="M42.6837 4.9563C43.2712 4.9563 43.8586 4.9563 44.4639 4.9563C44.324 5.09618 44.2266 5.07074 44.0308 5.07567C43.998 5.07663 43.9652 5.07759 43.9315 5.07858C43.8267 5.08153 43.7219 5.08383 43.6171 5.08611C43.546 5.08799 43.475 5.08992 43.404 5.0919C43.2298 5.09673 43.0557 5.10067 42.8815 5.10465C42.8652 5.46366 42.8488 5.82266 42.832 6.19255C42.8157 6.19255 42.7994 6.19255 42.7826 6.19255C42.7663 6.55156 42.7499 6.91057 42.7331 7.28045C42.7168 7.28045 42.7005 7.28045 42.6837 7.28045C42.6837 6.51348 42.6837 5.74651 42.6837 4.9563Z" fill="#CF2B20"/>
<path d="M59.4967 3.12671C59.513 3.12671 59.5293 3.12671 59.5461 3.12671C59.5453 3.18053 59.5446 3.23434 59.5438 3.28979C59.541 3.49217 59.5394 3.69455 59.538 3.89695C59.5372 3.98404 59.5362 4.07113 59.5349 4.15821C59.5283 4.61784 59.5236 5.04182 59.6672 5.48443C59.6968 5.60923 59.6868 5.67725 59.645 5.79701C59.308 4.98075 59.2302 4.038 59.4472 3.17616C59.4635 3.15984 59.4798 3.14352 59.4967 3.12671Z" fill="#128333"/>
<path d="M41.8925 15.1924C41.9088 15.1924 41.9251 15.1924 41.9419 15.1924C41.9509 15.2498 41.9599 15.3071 41.9691 15.3662C42.0704 16.0003 42.215 16.6073 42.3984 17.2231C42.4364 17.3682 42.4364 17.3682 42.4364 17.5165C42.4038 17.5165 42.3711 17.5165 42.3375 17.5165C41.7555 15.879 41.7555 15.879 41.8925 15.1924Z" fill="#050707"/>
<path d="M52.5026 10.4917C52.5622 10.4932 52.5622 10.4932 52.6231 10.4948C52.5741 10.5193 52.5741 10.5193 52.5242 10.5442C52.5242 10.5769 52.5242 10.6095 52.5242 10.6431C52.4916 10.6431 52.4589 10.6431 52.4253 10.6431C52.409 11.916 52.3927 13.1888 52.3759 14.5002C52.3595 14.5002 52.3432 14.5002 52.3264 14.5002C52.3253 13.9853 52.3244 13.4704 52.3238 12.9554C52.3236 12.7163 52.3232 12.4772 52.3227 12.2382C52.3221 12.0076 52.3218 11.7771 52.3217 11.5466C52.3216 11.4584 52.3214 11.3703 52.3212 11.2821C52.3208 11.1591 52.3208 11.036 52.3208 10.913C52.3206 10.8762 52.3204 10.8394 52.3203 10.8014C52.3209 10.4961 52.3209 10.4961 52.5026 10.4917Z" fill="#FC2F1F"/>
<path d="M64.5406 9.06058C64.1703 9.37737 63.472 9.27462 63.0076 9.25838C62.8137 9.23945 62.8137 9.23945 62.6615 9.20893C62.6452 9.17629 62.6288 9.14366 62.612 9.11003C62.8231 9.1029 63.0342 9.09586 63.2452 9.0889C63.3169 9.08653 63.3885 9.08413 63.4602 9.08171C63.5638 9.07821 63.6674 9.0748 63.771 9.0714C63.8642 9.06829 63.8642 9.06829 63.9594 9.06512C64.1532 9.06038 64.3466 9.05983 64.5406 9.06058Z" fill="#E71C17"/>
<path d="M59.2494 24.3408C59.2494 24.3898 59.2494 24.4387 59.2494 24.4892C59.1606 24.5693 59.0738 24.6386 58.9774 24.7086C58.9493 24.7296 58.9211 24.7507 58.8921 24.7723C58.8306 24.8182 58.7689 24.8639 58.7071 24.9094C58.6002 24.9884 58.4939 25.0681 58.3877 25.1481C58.1972 25.2914 58.0064 25.4344 57.8154 25.5771C57.8154 25.4287 57.8154 25.4287 57.8901 25.3451C58.1707 25.1038 58.4593 24.8755 58.7541 24.6522C58.851 24.5785 58.9464 24.5028 59.04 24.425C59.1505 24.3408 59.1505 24.3408 59.2494 24.3408Z" fill="#080809"/>
<path d="M56.1835 9.40674C56.2162 9.40674 56.2488 9.40674 56.2824 9.40674C56.2824 10.6469 56.2824 11.8872 56.2824 13.1649C56.2661 13.1649 56.2498 13.1649 56.233 13.1649C56.2325 13.1227 56.232 13.0805 56.2314 13.0371C56.2266 12.6391 56.2215 12.2411 56.2162 11.8431C56.2135 11.6385 56.2108 11.4339 56.2084 11.2293C56.206 11.0318 56.2034 10.8343 56.2007 10.6368C56.1997 10.5615 56.1988 10.4862 56.1979 10.4109C56.1967 10.3053 56.1952 10.1998 56.1937 10.0942C56.1929 10.0341 56.1922 9.97404 56.1914 9.91216C56.1877 9.75534 56.1877 9.75534 56.1551 9.61411C56.1341 9.50564 56.1341 9.50564 56.1835 9.40674Z" fill="#FD2E1F"/>
<path d="M59.8923 6.24194C60.0397 6.38071 60.1673 6.52109 60.2879 6.6839C60.3133 6.71807 60.3386 6.75224 60.3648 6.78744C60.424 6.86806 60.4827 6.94902 60.5413 7.03005C60.817 7.35784 61.2182 7.59025 61.5736 7.82435C61.5247 7.84882 61.5247 7.84882 61.4747 7.8738C60.8285 7.55294 60.2267 6.98446 59.8923 6.34084C59.8923 6.30821 59.8923 6.27557 59.8923 6.24194Z" fill="#08781F"/>
<path d="M58.1616 2.73096C58.3774 2.75171 58.5561 2.79531 58.755 2.87931C58.7328 3.02673 58.7101 3.174 58.687 3.32127C58.6807 3.36331 58.6745 3.40535 58.668 3.44866C58.6617 3.48866 58.6553 3.52866 58.6487 3.56987C58.6402 3.62542 58.6402 3.62542 58.6315 3.68209C58.6233 3.7109 58.6151 3.73972 58.6066 3.76941C58.574 3.78573 58.5413 3.80205 58.5077 3.81886C58.4559 3.59008 58.4668 3.43221 58.5294 3.20691C58.5507 3.12832 58.5507 3.12832 58.5724 3.04813C58.5837 3.00874 58.595 2.96935 58.6066 2.92876C58.5526 2.92264 58.4985 2.91652 58.4428 2.91021C58.2605 2.87931 58.2605 2.87931 58.1121 2.78041C58.1284 2.76409 58.1448 2.74777 58.1616 2.73096Z" fill="#060607"/>
<path d="M61.7714 3.71997C62.1293 3.88264 62.4588 4.21258 62.7109 4.51117C62.7109 4.54381 62.7109 4.57645 62.7109 4.61007C62.7762 4.61007 62.8415 4.61007 62.9087 4.61007C62.9251 4.56112 62.9414 4.51216 62.9582 4.46172C62.9908 4.46172 63.0235 4.46172 63.0571 4.46172C62.9883 4.63376 62.9269 4.68328 62.7604 4.75842C62.7339 4.73172 62.7075 4.70501 62.6803 4.6775C62.5608 4.55702 62.4412 4.43674 62.3215 4.31646C62.2799 4.27442 62.2383 4.23238 62.1954 4.18907C62.1555 4.14907 62.1157 4.10907 62.0747 4.06786C62.0379 4.03083 62.0011 3.9938 61.9632 3.95564C61.8759 3.86521 61.8759 3.86521 61.7714 3.81887C61.7714 3.78623 61.7714 3.7536 61.7714 3.71997Z" fill="#067A21"/>
<path d="M65.0845 16.9727C65.1172 16.989 65.1498 17.0053 65.1834 17.0221C65.1579 17.324 65.0605 17.5618 64.9331 17.8349C64.9145 17.8758 64.8958 17.9167 64.8766 17.9589C64.8309 18.0589 64.7849 18.1587 64.7384 18.2584C64.7058 18.2584 64.6731 18.2584 64.6395 18.2584C64.6748 18.0322 64.7544 17.8275 64.8373 17.6155C64.8816 17.5001 64.9259 17.3847 64.9702 17.2694C65.0083 17.1705 65.0464 17.0715 65.0845 16.9727Z" fill="#080909"/>
<path d="M60.3373 1.49487C60.3373 1.66858 60.3037 1.7063 60.2044 1.84411C59.9403 2.22813 59.761 2.64305 59.5956 3.07728C59.5058 2.83935 59.6174 2.67033 59.7144 2.44988C59.8822 2.10197 60.0516 1.75998 60.3373 1.49487Z" fill="#087923"/>
<path d="M51.5352 1.89033C51.3629 2.08064 51.1461 2.16571 50.9171 2.27357C50.8742 2.29454 50.8313 2.31552 50.7871 2.33712C50.7459 2.35669 50.7046 2.37626 50.6621 2.39643C50.6057 2.42337 50.6057 2.42337 50.5481 2.45085C50.4473 2.48374 50.4473 2.48374 50.299 2.43429C50.5646 2.26855 50.834 2.1121 51.1118 1.9676C51.1607 1.94217 51.2096 1.91673 51.26 1.89053C51.3869 1.84088 51.3869 1.84088 51.5352 1.89033Z" fill="#050708"/>
<path d="M42.7826 14.3518C42.7989 14.3518 42.8152 14.3518 42.832 14.3518C42.838 14.415 42.844 14.4783 42.8502 14.5434C42.8585 14.6279 42.8669 14.7124 42.8753 14.7969C42.8792 14.8384 42.8831 14.8799 42.8871 14.9226C42.9136 15.1862 42.9624 15.4309 43.0298 15.687C43.036 15.8353 43.036 15.8353 43.0298 15.9342C42.9972 15.9342 42.9645 15.9342 42.9309 15.9342C42.7515 15.4087 42.7679 14.9005 42.7826 14.3518Z" fill="#F22E1F"/>
<path d="M66.5186 6.83545C66.5513 6.83545 66.5839 6.83545 66.6175 6.83545C66.4424 7.23315 66.0699 7.4953 65.7151 7.72555C65.6859 7.74462 65.6567 7.76369 65.6267 7.78334C65.4642 7.88504 65.325 7.94983 65.134 7.9728C65.2468 7.84914 65.3624 7.77313 65.508 7.69155C65.9024 7.45919 66.2331 7.19238 66.5186 6.83545Z" fill="#0C7B22"/>
<path d="M65.4802 15.7363C65.4965 15.7363 65.5128 15.7363 65.5296 15.7363C65.5115 16.1374 65.4102 16.4944 65.2824 16.8737C65.2497 16.8737 65.2171 16.8737 65.1835 16.8737C65.2599 15.9566 65.2599 15.9566 65.4802 15.7363Z" fill="#060708"/>
<path d="M45.9968 11.9287C46.0131 11.9287 46.0294 11.9287 46.0462 11.9287C46.0626 12.4509 46.0789 12.9731 46.0957 13.5111C45.9764 13.2726 45.9411 13.1136 45.9408 12.8491C45.9407 12.7987 45.9406 12.7482 45.9406 12.6962C45.9409 12.6177 45.9409 12.6177 45.9412 12.5376C45.941 12.4846 45.9408 12.4317 45.9406 12.3771C45.9406 12.3269 45.9407 12.2766 45.9408 12.2248C45.9408 12.1787 45.9409 12.1326 45.9409 12.085C45.9473 11.9782 45.9473 11.9782 45.9968 11.9287Z" fill="#F62C1D"/>
<path d="M63.3538 18.6541C63.4033 18.8024 63.4033 18.8024 63.3571 18.9168C63.1649 19.2602 62.9495 19.5773 62.711 19.8903C62.6947 19.8413 62.6783 19.7924 62.6615 19.742C62.7328 19.615 62.7328 19.615 62.8377 19.4669C63.0214 19.2019 63.1913 18.9324 63.3538 18.6541Z" fill="#F02D1E"/>
<path d="M65.9747 0.950684C66.1942 0.971693 66.3172 1.12238 66.463 1.27211C66.4892 1.29872 66.5153 1.32533 66.5423 1.35274C66.9487 1.77437 66.9487 1.77437 67.0626 2.03859C67.0463 2.08754 67.0299 2.1365 67.0131 2.18694C66.9656 2.118 66.9656 2.118 66.9171 2.04766C66.6901 1.72184 66.4684 1.41615 66.1725 1.14848C66.1065 1.08255 66.0406 1.01662 65.9747 0.950684Z" fill="#06751B"/>
<path d="M63.0076 0.110098C62.9582 0.208998 62.9582 0.208998 62.8596 0.242138C62.7962 0.256427 62.7962 0.256427 62.7314 0.271004C62.6624 0.286924 62.6624 0.286924 62.592 0.303166C62.5435 0.313907 62.4951 0.324648 62.4452 0.335714C62.35 0.357362 62.2548 0.379059 62.1597 0.40081C62.1172 0.41028 62.0748 0.41975 62.0311 0.429507C61.9125 0.456296 61.9125 0.456296 61.7714 0.505699C61.7877 0.456743 61.804 0.407788 61.8208 0.357349C61.9372 0.304653 62.0459 0.262866 62.167 0.224451C62.2172 0.208035 62.2172 0.208035 62.2684 0.191287C62.5226 0.112547 62.7409 0.0866956 63.0076 0.110098Z" fill="#10812D"/>
<path d="M58.5077 3.81885C58.524 3.81885 58.5403 3.81885 58.5571 3.81885C58.5735 4.27577 58.5898 4.73269 58.6066 5.20345C58.4959 4.98208 58.452 4.82942 58.4517 4.58474C58.4516 4.54322 58.4515 4.50169 58.4515 4.4589C58.4517 4.41597 58.4519 4.37303 58.4521 4.3288C58.4519 4.2853 58.4517 4.24179 58.4515 4.19697C58.4515 4.15563 58.4516 4.11429 58.4517 4.0717C58.4517 4.03386 58.4518 3.99601 58.4518 3.95702C58.4582 3.8683 58.4582 3.8683 58.5077 3.81885Z" fill="#E50704"/>
<path d="M61.9198 20.7307C61.8509 20.8866 61.7702 20.9909 61.649 21.1101C61.5992 21.1593 61.5992 21.1593 61.5485 21.2096C61.514 21.2433 61.4794 21.277 61.4438 21.3118C61.4089 21.3462 61.374 21.3807 61.338 21.4163C61.2519 21.5012 61.1656 21.5858 61.0791 21.6703C61.0465 21.6539 61.0139 21.6376 60.9802 21.6208C61.1537 21.4139 61.3306 21.2161 61.5242 21.0274C61.5499 21.0006 61.5756 20.9739 61.602 20.9463C61.81 20.7307 61.81 20.7307 61.9198 20.7307Z" fill="#F72E1F"/>
<path d="M61.9198 5.54956C62.0996 5.63948 62.2182 5.74965 62.3525 5.89571C62.5488 6.09952 62.7342 6.18109 63.0077 6.24186C63.0077 6.25818 63.0077 6.2745 63.0077 6.29131C62.626 6.32608 62.626 6.32608 62.4471 6.17928C62.3961 6.13108 62.346 6.08185 62.2968 6.0317C62.2711 6.00741 62.2454 5.98313 62.219 5.9581C62.0898 5.83293 61.9863 5.71788 61.9198 5.54956Z" fill="#178330"/>
<path d="M56.678 3.22559C56.9321 3.25724 57.1522 3.33423 57.3889 3.42648C57.4435 3.44737 57.4435 3.44737 57.4992 3.46868C57.5882 3.50279 57.6771 3.53723 57.7659 3.57174C57.7659 3.62069 57.7659 3.66965 57.7659 3.72009C57.5936 3.66645 57.4217 3.6115 57.2498 3.55628C57.2007 3.54102 57.1516 3.52575 57.101 3.51002C57.0543 3.49488 57.0076 3.47974 56.9595 3.46414C56.9162 3.45042 56.873 3.43669 56.8284 3.42255C56.7951 3.40651 56.7618 3.39047 56.7275 3.37394C56.7112 3.32498 56.6949 3.27603 56.678 3.22559Z" fill="#F02E1F"/>
<path d="M64.0461 19.4451C64.0624 19.4777 64.0788 19.5103 64.0956 19.544C64.0322 19.6859 63.9436 19.8145 63.8607 19.9458C63.8381 19.983 63.8156 20.0203 63.7923 20.0588C63.7703 20.094 63.7482 20.1293 63.7255 20.1656C63.7052 20.1981 63.685 20.2306 63.6641 20.2641C63.6433 20.2876 63.6225 20.311 63.6011 20.3352C63.5521 20.3352 63.5032 20.3352 63.4527 20.3352C63.5313 20.1699 63.6238 20.0169 63.7216 19.8623C63.7511 19.8153 63.7806 19.7683 63.811 19.7199C63.8833 19.6145 63.952 19.5305 64.0461 19.4451Z" fill="#060707"/>
<path d="M49.5572 18.8022C49.9489 18.8349 50.3405 18.8675 50.744 18.9011C50.577 19.0682 50.3573 19.0408 50.1298 19.0551C49.8872 19.0474 49.7575 18.9839 49.5572 18.8517C49.5572 18.8354 49.5572 18.8191 49.5572 18.8022Z" fill="#F32E1E"/>
<path d="M64.5901 18.3572C64.6395 18.5055 64.6395 18.5055 64.6088 18.595C64.592 18.6274 64.5751 18.6597 64.5578 18.6931C64.5398 18.7283 64.5218 18.7635 64.5032 18.7998C64.4839 18.8363 64.4647 18.8728 64.4448 18.9104C64.4162 18.966 64.4162 18.966 64.3869 19.0227C64.3397 19.1143 64.2919 19.2055 64.2439 19.2967C64.1949 19.2967 64.146 19.2967 64.0956 19.2967C64.1723 19.1004 64.2559 18.9078 64.3428 18.7157C64.3683 18.6588 64.3938 18.602 64.4201 18.5434C64.4912 18.4066 64.4912 18.4066 64.5901 18.3572Z" fill="#020303"/>
<path d="M60.5846 12.9673C60.6009 12.9673 60.6173 12.9673 60.6341 12.9673C60.6623 13.3759 60.5592 13.7188 60.4363 14.1046C60.4036 14.1046 60.371 14.1046 60.3374 14.1046C60.3699 13.8441 60.4231 13.5952 60.4888 13.3413C60.498 13.3051 60.5072 13.2689 60.5167 13.2316C60.5392 13.1435 60.5619 13.0554 60.5846 12.9673Z" fill="#F02D1F"/>
<path d="M47.8759 11.6321C47.9086 11.6321 47.9412 11.6321 47.9748 11.6321C47.9422 12.0727 47.9095 12.5133 47.8759 12.9672C47.8596 12.9672 47.8433 12.9672 47.8265 12.9672C47.8152 12.7911 47.8053 12.6149 47.7956 12.4387C47.7924 12.3889 47.7892 12.3391 47.7859 12.2878C47.7833 12.2395 47.7808 12.1912 47.7782 12.1415C47.7756 12.0972 47.773 12.0529 47.7703 12.0073C47.7778 11.8641 47.8161 11.7615 47.8759 11.6321Z" fill="#F62E1F"/>
<path d="M52.4748 7.42871C52.3416 7.56192 52.2164 7.58382 52.0359 7.63578C51.9748 7.65382 51.9138 7.67186 51.8509 7.69045C51.699 7.7222 51.627 7.73168 51.4858 7.67596C51.6011 7.56066 51.6764 7.54297 51.8319 7.49979C52.2453 7.38382 52.2453 7.38382 52.4748 7.42871Z" fill="#F22C1E"/>
<path d="M67.4087 5.25293C67.4917 5.58481 67.303 5.88134 67.1393 6.17085C67.0826 6.26169 67.0234 6.35093 66.9637 6.43973C66.9473 6.40709 66.931 6.37446 66.9142 6.34083C66.9509 6.25333 66.9509 6.25333 67.0069 6.1523C67.087 6.00068 67.14 5.87005 67.1615 5.69798C67.1941 5.69798 67.2267 5.69798 67.2604 5.69798C67.3093 5.55111 67.3583 5.40425 67.4087 5.25293Z" fill="#0B7A24"/>
<path d="M56.233 16.9232C56.0426 17.0501 55.8847 17.0366 55.6643 17.0344C55.6261 17.0348 55.588 17.0352 55.5486 17.0356C55.3559 17.0349 55.2593 17.0323 55.0956 16.9232C55.2296 16.9135 55.3635 16.9043 55.4974 16.8954C55.535 16.8926 55.5726 16.8898 55.6114 16.887C55.8275 16.873 56.0194 16.8771 56.233 16.9232Z" fill="#EF2E1F"/>
<path d="M53.7605 6.98364C53.7605 7.01628 53.7605 7.04892 53.7605 7.08254C53.667 7.11728 53.5732 7.1511 53.4793 7.18453C53.4271 7.20347 53.3749 7.2224 53.3211 7.2419C53.1625 7.2815 53.0747 7.27657 52.9199 7.23089C53.0392 7.11154 53.1225 7.09464 53.2846 7.05164C53.3319 7.03876 53.3792 7.02588 53.4279 7.01262C53.5627 6.98364 53.5627 6.98364 53.7605 6.98364Z" fill="#F02D1E"/>
<path d="M67.112 2.23657C67.2672 2.36535 67.3218 2.51115 67.3932 2.69708C67.4149 2.75196 67.4365 2.80684 67.4587 2.86339C67.5073 3.02679 67.5171 3.1552 67.5076 3.32447C67.3939 3.21077 67.3787 3.14398 67.3376 2.99069C67.2939 2.83589 67.2494 2.70911 67.1769 2.56418C67.112 2.43437 67.112 2.43437 67.112 2.23657Z" fill="#0D7E28"/>
<path d="M57.5187 25.5769C57.5513 25.5932 57.584 25.6095 57.6176 25.6264C57.4129 25.8509 57.1812 26.008 56.9253 26.1703C56.8926 26.154 56.86 26.1377 56.8264 26.1209C57.0483 25.9246 57.2753 25.7458 57.5187 25.5769Z" fill="#040505"/>
<path d="M47.4309 14.1045C47.5402 14.2052 47.6082 14.2944 47.6694 14.4296C47.6846 14.4626 47.6997 14.4956 47.7153 14.5296C47.7306 14.5637 47.7458 14.5978 47.7616 14.633C47.7774 14.6677 47.7933 14.7024 47.8096 14.7382C47.8485 14.8235 47.887 14.909 47.9254 14.9946C47.8927 15.0109 47.8601 15.0272 47.8265 15.044C47.76 14.9248 47.6942 14.8053 47.6287 14.6855C47.6004 14.6349 47.6004 14.6349 47.5715 14.5833C47.5537 14.5505 47.5358 14.5177 47.5174 14.4839C47.4926 14.4388 47.4926 14.4388 47.4672 14.3928C47.4309 14.3023 47.4309 14.3023 47.4309 14.1045Z" fill="#F32D1F"/>
<path d="M50.9419 15.044C50.9419 15.0603 50.9419 15.0766 50.9419 15.0934C50.5992 15.0934 50.2565 15.0934 49.9034 15.0934C49.8871 15.0608 49.8708 15.0281 49.854 14.9945C50.2415 14.9502 50.5654 14.9355 50.9419 15.044Z" fill="#F32D1F"/>
<path d="M63.7494 5.50024C63.7494 5.70356 63.6667 5.77093 63.5393 5.92675C63.5002 5.97532 63.4612 6.0239 63.421 6.07394C63.3089 6.18796 63.2623 6.227 63.1066 6.242C63.1862 6.04055 63.331 5.90746 63.4836 5.75986C63.5091 5.73481 63.5346 5.70975 63.5609 5.68394C63.6235 5.62248 63.6864 5.56133 63.7494 5.50024Z" fill="#0B7C26"/>
<path d="M45.5518 20.6814C45.7931 20.8763 45.9997 21.0829 46.1946 21.3242C46.0463 21.3242 46.0463 21.3242 45.9236 21.2213C45.8795 21.1767 45.8353 21.1322 45.7898 21.0863C45.7452 21.0421 45.7007 20.9979 45.6547 20.9524C45.5518 20.8297 45.5518 20.8297 45.5518 20.6814Z" fill="#EF2F1E"/>
<path d="M59.3978 14.6484C59.3978 14.7968 59.3978 14.7968 59.302 14.9266C59.1055 15.079 58.9483 15.0877 58.7055 15.0935C58.6892 15.0609 58.6729 15.0282 58.6561 14.9946C58.7142 14.9834 58.7723 14.9722 58.8322 14.9606C59.0636 14.9041 59.2123 14.7953 59.3978 14.6484Z" fill="#F22C1E"/>
<path d="M59.6945 7.47827C59.7649 7.53947 59.7649 7.53947 59.8367 7.6019C60.0646 7.79754 60.2998 7.98399 60.5351 8.17057C60.4862 8.18689 60.4372 8.20321 60.3868 8.22002C60.2804 8.12455 60.1743 8.0287 60.0685 7.93259C60.0382 7.90553 60.008 7.87848 59.9768 7.8506C59.948 7.8243 59.9191 7.79801 59.8894 7.77092C59.8627 7.74683 59.836 7.72275 59.8086 7.69794C59.7439 7.62662 59.7439 7.62662 59.6945 7.47827Z" fill="#E20C09"/>
<path d="M60.634 12.0769C60.6504 12.0769 60.6667 12.0769 60.6835 12.0769C60.6835 12.3217 60.6835 12.5665 60.6835 12.8187C60.6345 12.8431 60.6345 12.8431 60.5846 12.8681C60.5259 12.6136 60.5363 12.3812 60.5846 12.1264C60.6009 12.11 60.6172 12.0937 60.634 12.0769Z" fill="#F62C1D"/>
<path d="M43.0793 16.3792C43.1119 16.3792 43.1446 16.3792 43.1782 16.3792C43.2608 16.5256 43.2932 16.6447 43.308 16.8118C43.3117 16.8514 43.3154 16.8909 43.3192 16.9316C43.3228 16.9763 43.3228 16.9763 43.3265 17.022C43.2939 17.022 43.2613 17.022 43.2276 17.022C43.2025 16.9521 43.1779 16.882 43.1535 16.8118C43.1328 16.7533 43.1328 16.7533 43.1117 16.6936C43.0793 16.577 43.0793 16.577 43.0793 16.3792Z" fill="#F22D1E"/>
<path d="M60.9308 9.65405C60.9634 9.65405 60.9961 9.65405 61.0297 9.65405C61.0794 9.74251 61.1288 9.83114 61.178 9.91985C61.2193 9.99385 61.2193 9.99385 61.2615 10.0694C61.3264 10.198 61.3264 10.198 61.3264 10.2969C61.2774 10.2969 61.2285 10.2969 61.178 10.2969C61.1366 10.2084 61.0954 10.1198 61.0544 10.0311C61.02 9.9571 61.02 9.9571 60.9849 9.8816C60.9308 9.75295 60.9308 9.75295 60.9308 9.65405Z" fill="#F12C1F"/>
<path d="M48.321 8.26929C48.4366 8.34878 48.5274 8.41157 48.6177 8.51654C48.6474 8.72823 48.6349 8.87911 48.5188 9.06049C48.4806 8.9364 48.4701 8.84574 48.4755 8.71434C48.4685 8.54444 48.429 8.49413 48.321 8.36819C48.321 8.33555 48.321 8.30291 48.321 8.26929Z" fill="#F62E1F"/>
<path d="M54.6011 6.78597C54.4569 6.93022 54.3019 6.97823 54.0981 6.98995C54.002 6.98995 53.906 6.98708 53.8099 6.98377C54.0716 6.84287 54.3022 6.77173 54.6011 6.78597Z" fill="#F12C1D"/>
<path d="M61.5241 0.654073C61.446 0.709871 61.3676 0.765462 61.2893 0.820967C61.2457 0.851946 61.2021 0.882926 61.1571 0.914845C61.0507 0.986121 60.9478 1.04547 60.8318 1.09912C60.9035 0.921309 60.9914 0.84256 61.1502 0.73752C61.1889 0.711193 61.2276 0.684867 61.2674 0.657743C61.3758 0.604623 61.3758 0.604623 61.5241 0.654073Z" fill="#07791F"/>
<path d="M48.8649 15.5386C48.9139 15.5549 48.9629 15.5712 49.0133 15.588C48.9829 15.6283 48.9829 15.6283 48.9519 15.6693C48.9119 15.7224 48.9119 15.7224 48.8711 15.7766C48.8447 15.8115 48.8184 15.8465 48.7912 15.8826C48.731 15.9641 48.6739 16.0477 48.6177 16.132C48.5851 16.1157 48.5524 16.0993 48.5188 16.0825C48.6252 15.8918 48.7282 15.7095 48.8649 15.5386Z" fill="#F22D1D"/>
<path d="M60.9802 15.4397C61.0448 15.6333 60.9962 15.6889 60.9091 15.8693C60.8857 15.9184 60.8623 15.9676 60.8382 16.0182C60.8106 16.0745 60.8106 16.0745 60.7824 16.132C60.7661 16.132 60.7498 16.132 60.733 16.132C60.756 15.8498 60.8288 15.6791 60.9802 15.4397Z" fill="#F32D1E"/>
<path d="M55.0956 13.165C54.9826 13.278 54.8916 13.312 54.7433 13.369C54.6983 13.3865 54.6533 13.404 54.6069 13.422C54.5724 13.4351 54.5378 13.4482 54.5022 13.4617C54.4696 13.4291 54.4369 13.3965 54.4033 13.3628C54.8686 13.1358 54.8686 13.1358 55.0956 13.165Z" fill="#F12E1E"/>
<path d="M60.8318 1.04956C60.8166 1.07812 60.8013 1.10668 60.7855 1.1361C60.7366 1.23959 60.7074 1.33367 60.6835 1.44516C60.6345 1.42884 60.5856 1.41252 60.5351 1.39571C60.5351 1.42835 60.5351 1.46099 60.5351 1.49461C60.5025 1.49461 60.4699 1.49461 60.4362 1.49461C60.459 1.28952 60.6101 1.04956 60.8318 1.04956Z" fill="#118230"/>
<path d="M49.3594 9.75293C49.3921 9.75293 49.4247 9.75293 49.4583 9.75293C49.4583 9.78557 49.4583 9.8182 49.4583 9.85183C49.5073 9.86815 49.5562 9.88447 49.6067 9.90128C49.6976 10.1012 49.7182 10.2343 49.6561 10.4452C49.6398 10.4452 49.6235 10.4452 49.6067 10.4452C49.6013 10.4148 49.5958 10.3844 49.5903 10.3531C49.5785 10.2931 49.5785 10.2931 49.5665 10.232C49.5553 10.1726 49.5553 10.1726 49.5439 10.112C49.5037 9.9876 49.4533 9.93956 49.3594 9.85183C49.3594 9.81919 49.3594 9.78656 49.3594 9.75293Z" fill="#F62D1E"/>
<path d="M59.2 6.83545C59.3953 6.90054 59.425 6.98645 59.5307 7.15997C59.5615 7.21 59.5923 7.26004 59.624 7.3116C59.6473 7.35029 59.6705 7.38898 59.6945 7.42885C59.6456 7.45333 59.6456 7.45333 59.5956 7.4783C59.5387 7.39913 59.4821 7.31977 59.4256 7.24032C59.3941 7.19615 59.3625 7.15197 59.33 7.10646C59.2495 6.9838 59.2495 6.9838 59.2 6.83545Z" fill="#E2100A"/>
<path d="M65.678 3.42334C65.7106 3.43966 65.7432 3.45598 65.7769 3.47279C65.6137 3.65229 65.4505 3.8318 65.2824 4.01674C65.266 3.96779 65.2497 3.91883 65.2329 3.86839C65.3798 3.72152 65.5266 3.57466 65.678 3.42334Z" fill="#067820"/>
<path d="M52.8704 0.950684C52.903 0.967002 52.9356 0.983321 52.9693 1.00013C52.9145 1.15888 52.8696 1.19841 52.722 1.28756C52.6731 1.30694 52.6241 1.32632 52.5737 1.34628C52.541 1.32997 52.5084 1.31365 52.4748 1.29683C52.6022 1.16591 52.7179 1.05234 52.8704 0.950684Z" fill="#060808"/>
<path d="M49.31 13.8572C49.4485 14.0127 49.4758 14.1077 49.4676 14.3146C49.4663 14.3587 49.4649 14.4028 49.4636 14.4483C49.4618 14.4817 49.4601 14.5151 49.4583 14.5495C49.4257 14.5332 49.3931 14.5168 49.3594 14.5C49.339 14.3546 49.339 14.3546 49.3285 14.1755C49.3248 14.1163 49.3211 14.0571 49.3173 13.9961C49.3149 13.9502 49.3125 13.9044 49.31 13.8572Z" fill="#F12C1D"/>
<path d="M54.2055 27.6045C54.2382 27.6208 54.2708 27.6371 54.3044 27.6539C54.183 27.7841 54.0787 27.8904 53.9088 27.9506C53.8599 27.9343 53.8109 27.918 53.7605 27.9012C53.9074 27.8033 54.0542 27.7054 54.2055 27.6045Z" fill="#040505"/>
<path d="M61.6725 21.0276C61.7065 21.1172 61.7065 21.1172 61.7219 21.2254C61.6157 21.3879 61.4565 21.4207 61.2769 21.4726C61.3242 21.417 61.3716 21.3613 61.4191 21.3057C61.4454 21.2748 61.4718 21.2438 61.499 21.2119C61.5545 21.1483 61.6128 21.0872 61.6725 21.0276Z" fill="#1B1417"/>
<path d="M58.4583 14.2034C58.5206 14.328 58.5037 14.394 58.4861 14.531C58.4785 14.5916 58.4785 14.5916 58.4708 14.6534C58.4667 14.6844 58.4625 14.7154 58.4583 14.7473C58.3835 14.6843 58.3835 14.6843 58.3099 14.599C58.3192 14.4197 58.3192 14.4197 58.3594 14.2528C58.392 14.2365 58.4246 14.2202 58.4583 14.2034Z" fill="#171117"/>
<path d="M45.0078 3.86834C44.9915 3.91729 44.9752 3.96625 44.9584 4.01669C44.7952 4.01669 44.632 4.01669 44.4639 4.01669C44.5133 3.91779 44.5133 3.91779 44.5968 3.88688C44.7351 3.86445 44.8679 3.86516 45.0078 3.86834Z" fill="#151616"/>
<path d="M52.9199 26.4175C53.1059 26.4426 53.1919 26.4748 53.3155 26.6153C53.3644 26.6479 53.4134 26.6806 53.4638 26.7142C53.2484 26.6891 53.0958 26.6457 52.9199 26.5164C52.9199 26.4837 52.9199 26.4511 52.9199 26.4175Z" fill="#F12E1F"/>
<path d="M59.1011 10.2476C59.3178 10.3138 59.4246 10.402 59.5462 10.5937C59.5298 10.6427 59.5135 10.6916 59.4967 10.7421C59.4681 10.7043 59.4396 10.6666 59.4102 10.6277C59.3071 10.4944 59.3071 10.4944 59.1876 10.4114C59.1591 10.3899 59.1305 10.3685 59.1011 10.3465C59.1011 10.3138 59.1011 10.2812 59.1011 10.2476Z" fill="#F12B1D"/>
<path d="M55.9363 26.6155C55.9689 26.6318 56.0016 26.6481 56.0352 26.6649C55.8065 26.906 55.8065 26.906 55.6396 26.9616C55.6396 26.8964 55.6396 26.8311 55.6396 26.7638C55.7367 26.711 55.8358 26.6617 55.9363 26.6155Z" fill="#050607"/>
<path d="M48.2715 14.3518C48.4965 14.4268 48.593 14.6074 48.7166 14.7969C48.4785 14.7557 48.4109 14.6405 48.2715 14.4507C48.2715 14.4181 48.2715 14.3854 48.2715 14.3518Z" fill="#F02C1D"/>
<path d="M49.0133 13.3135C49.1716 13.419 49.1874 13.4462 49.2451 13.6164C49.2575 13.6522 49.2699 13.688 49.2827 13.7249C49.2962 13.766 49.2962 13.766 49.31 13.808C49.261 13.808 49.2121 13.808 49.1616 13.808C49.061 13.6235 49.0133 13.5276 49.0133 13.3135Z" fill="#F12D1F"/>
<path d="M46.9364 9.11011C46.969 9.11011 47.0016 9.11011 47.0353 9.11011C47.0074 9.305 46.9522 9.44394 46.8375 9.60461C46.8048 9.60461 46.7722 9.60461 46.7386 9.60461C46.7934 9.43219 46.8505 9.26959 46.9364 9.11011Z" fill="#EE2D1D"/>
<path d="M59.4967 3.12671C59.513 3.12671 59.5294 3.12671 59.5462 3.12671C59.5502 3.33249 59.5453 3.5197 59.4967 3.72011C59.4641 3.70379 59.4315 3.68747 59.3978 3.67066C59.4048 3.58925 59.412 3.50787 59.4195 3.4265C59.4235 3.38118 59.4275 3.33586 59.4316 3.28916C59.4473 3.17616 59.4473 3.17616 59.4967 3.12671Z" fill="#168434"/>
<path d="M49.6067 15.1429C49.5111 15.243 49.4271 15.3121 49.31 15.3902C49.2018 15.3716 49.2018 15.3716 49.1122 15.3407C49.2809 15.1865 49.3751 15.1165 49.6067 15.1429Z" fill="#F02C1E"/>
<path d="M58.8539 13.0662C58.8702 13.0662 58.8865 13.0662 58.9033 13.0662C58.9122 13.2614 58.9079 13.3924 58.8044 13.5607C58.7718 13.5607 58.7391 13.5607 58.7055 13.5607C58.7207 13.4875 58.7362 13.4143 58.7519 13.3412C58.7648 13.2801 58.7648 13.2801 58.7779 13.2178C58.8044 13.1156 58.8044 13.1156 58.8539 13.0662Z" fill="#F22D1D"/>
<path d="M47.2825 4.46181C47.2825 4.49445 47.2825 4.52709 47.2825 4.56071C47.1356 4.59335 46.9888 4.62599 46.8374 4.65961C46.8211 4.61066 46.8048 4.5617 46.788 4.51126C46.9564 4.47277 47.1098 4.45688 47.2825 4.46181Z" fill="#EE2F1F"/>
<path d="M56.8264 6.04419C56.8264 6.09315 56.8264 6.1421 56.8264 6.19254C56.5156 6.31263 56.5156 6.31263 56.3319 6.24199C56.6595 6.09982 56.6595 6.09982 56.8264 6.04419Z" fill="#F42C1D"/>
<path d="M45.8979 3.76945C45.8979 3.80209 45.8979 3.83473 45.8979 3.86835C45.7262 3.9256 45.5834 3.9212 45.4034 3.9178C45.4529 3.8189 45.4529 3.8189 45.5394 3.788C45.6608 3.76777 45.7751 3.76604 45.8979 3.76945Z" fill="#010102"/>
<path d="M59.2 23.2034C59.2 23.3612 59.1935 23.4236 59.1011 23.5495C58.9466 23.5866 58.9466 23.5866 58.8044 23.599C58.9363 23.4671 59.0682 23.3352 59.2 23.2034Z" fill="#131319"/>
<path d="M56.777 6.24202C56.5213 6.44286 56.5213 6.44286 56.3134 6.42746C56.2705 6.41522 56.2277 6.40298 56.1836 6.39037C56.6121 6.1596 56.6121 6.1596 56.777 6.24202Z" fill="#1C1518"/>
<path d="M65.0351 4.11572C65.0677 4.13204 65.1004 4.14836 65.134 4.16517C65.0869 4.22315 65.0395 4.28078 64.9918 4.33825C64.9654 4.37038 64.939 4.4025 64.9118 4.4356C64.8872 4.46059 64.8626 4.48558 64.8373 4.51132C64.8046 4.51132 64.772 4.51132 64.7384 4.51132C64.7221 4.54396 64.7057 4.5766 64.6889 4.61022C64.7174 4.44444 64.7677 4.36603 64.8898 4.25171C64.9305 4.21308 64.9305 4.21308 64.9719 4.17367C65.0032 4.14499 65.0032 4.14499 65.0351 4.11572Z" fill="#027519"/>
<path d="M55.4912 26.9614C55.4418 27.1098 55.4418 27.1098 55.2903 27.1932C55.2424 27.2146 55.1945 27.2361 55.1451 27.2581C55.218 27.0898 55.2863 26.9614 55.4912 26.9614Z" fill="#060707"/>
<path d="M51.0902 25.2803C51.1453 25.3099 51.2003 25.3394 51.2571 25.3699C51.3035 25.3949 51.3035 25.3949 51.351 25.4203C51.4363 25.4781 51.4363 25.4781 51.5352 25.6264C51.3652 25.565 51.2261 25.5 51.0902 25.3792C51.0902 25.3465 51.0902 25.3139 51.0902 25.2803Z" fill="#F62D1E"/>
<path d="M56.777 24.9341C56.8422 24.9504 56.9075 24.9667 56.9748 24.9835C56.8605 25.0651 56.7463 25.1467 56.6286 25.2308C56.596 25.2145 56.5634 25.1981 56.5297 25.1813C56.5977 25.1072 56.5977 25.1072 56.6781 25.033C56.7107 25.033 56.7433 25.033 56.777 25.033C56.777 25.0003 56.777 24.9677 56.777 24.9341Z" fill="#F32C1D"/>
<path d="M63.3043 20.4341C63.337 20.4504 63.3696 20.4667 63.4032 20.4835C63.3706 20.5651 63.338 20.6467 63.3043 20.7308C63.2554 20.7308 63.2064 20.7308 63.156 20.7308C63.2054 20.6319 63.2549 20.533 63.3043 20.4341Z" fill="#030405"/>
<path d="M42.8815 15.8352C42.8978 15.8352 42.9141 15.8352 42.9309 15.8352C42.9635 15.9984 42.9962 16.1616 43.0298 16.3297C42.9808 16.3542 42.9808 16.3542 42.9309 16.3792C42.8503 16.1753 42.819 16.0475 42.8815 15.8352Z" fill="#1E1618"/>
<path d="M48.9638 9.75293C49.2864 9.78336 49.2864 9.78336 49.4058 9.87965C49.4231 9.9031 49.4405 9.92656 49.4583 9.95073C49.3931 9.96705 49.3278 9.98337 49.2605 10.0002C49.2442 9.95122 49.2279 9.90227 49.2111 9.85183C49.1295 9.83551 49.0479 9.81919 48.9638 9.80238C48.9638 9.78606 48.9638 9.76974 48.9638 9.75293Z" fill="#1C1719"/>
<path d="M60.5846 9.11011C60.7312 9.24897 60.8539 9.36641 60.9308 9.55516C60.7649 9.48652 60.6779 9.41243 60.5846 9.25846C60.5846 9.2095 60.5846 9.16055 60.5846 9.11011Z" fill="#F42D1F"/>
<path d="M64.689 8.96167C64.6727 9.0759 64.6563 9.19013 64.6395 9.30782C64.6069 9.30782 64.5742 9.30782 64.5406 9.30782C64.5314 9.26192 64.5314 9.26192 64.5221 9.2151C64.4975 9.10056 64.4975 9.10056 64.3923 9.01112C64.4949 8.98375 64.5823 8.96167 64.689 8.96167Z" fill="#EB2F24"/>
<path d="M52.3264 7.5772C52.2775 7.59352 52.2285 7.60983 52.1781 7.62665C52.1781 7.65928 52.1781 7.69192 52.1781 7.72555C52.0149 7.72555 51.8517 7.72555 51.6836 7.72555C52.1534 7.49066 52.1534 7.49066 52.3264 7.5772Z" fill="#24181A"/>
<path d="M64.4417 4.75854C64.4743 4.77486 64.507 4.79118 64.5406 4.808C64.4853 4.87422 64.4296 4.94009 64.3737 5.0058C64.3427 5.04251 64.3117 5.07923 64.2798 5.11706C64.2376 5.15989 64.2376 5.15989 64.1945 5.2036C64.1618 5.2036 64.1292 5.2036 64.0956 5.2036C64.1724 5.01485 64.2951 4.8974 64.4417 4.75854Z" fill="#037417"/>
<path d="M55.9363 25.5769C55.8868 25.7253 55.8868 25.7253 55.7694 25.8118C55.6396 25.8736 55.6396 25.8736 55.4912 25.8242C55.5467 25.7827 55.6023 25.7415 55.6581 25.7005C55.6891 25.6776 55.7201 25.6546 55.752 25.631C55.8374 25.5769 55.8374 25.5769 55.9363 25.5769Z" fill="#F42E1F"/>
<path d="M50.4968 24.9341C50.6882 24.9624 50.7975 25.0571 50.9418 25.1813C50.8929 25.2058 50.8929 25.2058 50.8429 25.2308C50.7851 25.1908 50.7275 25.1506 50.6699 25.1102C50.6377 25.0879 50.6056 25.0655 50.5725 25.0424C50.5475 25.023 50.5225 25.0036 50.4968 24.9835C50.4968 24.9672 50.4968 24.9509 50.4968 24.9341Z" fill="#F12C1D"/>
<path d="M46.4419 21.6208C46.4909 21.6208 46.5398 21.6208 46.5902 21.6208C46.5902 21.6535 46.5902 21.6861 46.5902 21.7197C46.6555 21.7524 46.7208 21.785 46.788 21.8186C46.788 21.8676 46.788 21.9166 46.788 21.967C46.7302 21.9188 46.6725 21.8703 46.615 21.8217C46.5828 21.7948 46.5507 21.7678 46.5176 21.74C46.4926 21.717 46.4676 21.694 46.4419 21.6703C46.4419 21.654 46.4419 21.6377 46.4419 21.6208Z" fill="#F82E1F"/>
<path d="M45.2056 20.2859C45.354 20.3353 45.354 20.3353 45.4405 20.4559C45.4711 20.5186 45.4711 20.5186 45.5023 20.5826C45.486 20.6152 45.4697 20.6479 45.4529 20.6815C45.3293 20.5671 45.3293 20.5671 45.2056 20.4342C45.2056 20.3853 45.2056 20.3363 45.2056 20.2859Z" fill="#F52F21"/>
<path d="M44.7606 19.7419C44.8259 19.7583 44.8911 19.7746 44.9584 19.7914C44.9747 19.8893 44.991 19.9872 45.0078 20.0881C44.9233 20.0078 44.841 19.9252 44.7606 19.8408C44.7606 19.8082 44.7606 19.7756 44.7606 19.7419Z" fill="#F12E1F"/>
<path d="M54.4033 16.6265C54.6382 16.6697 54.6382 16.6697 54.7495 16.7254C54.7495 16.7743 54.7495 16.8233 54.7495 16.8737C54.5688 16.8119 54.5131 16.7911 54.4033 16.6265Z" fill="#EF2F20"/>
<path d="M48.9638 13.3628C49.0623 13.5105 49.1093 13.6396 49.1616 13.8078C49.1127 13.8078 49.0637 13.8078 49.0133 13.8078C48.9402 13.6616 48.9609 13.5239 48.9638 13.3628Z" fill="#151319"/>
<path d="M48.0243 11.0386C48.0406 11.0386 48.0569 11.0386 48.0737 11.0386C48.0799 11.4218 48.0799 11.4218 48.0243 11.5331C47.9916 11.5331 47.959 11.5331 47.9254 11.5331C47.958 11.3699 47.9906 11.2067 48.0243 11.0386Z" fill="#F52B1F"/>
<path d="M62.4637 6.09375C62.733 6.16718 62.733 6.16718 63.0077 6.2421C63.0077 6.25842 63.0077 6.27474 63.0077 6.29155C62.7131 6.31087 62.7131 6.31087 62.6121 6.29155C62.5631 6.22628 62.5142 6.161 62.4637 6.09375Z" fill="#04781C"/>
<path d="M58.6066 5.10449C58.7391 5.30323 58.7132 5.41314 58.7055 5.64844C58.6241 5.5019 58.579 5.36995 58.5571 5.20339C58.5734 5.17076 58.5898 5.13812 58.6066 5.10449Z" fill="#E61915"/>
<path d="M51.0407 3.22553C50.982 3.2997 50.982 3.2997 50.8924 3.37388C50.7595 3.38315 50.7595 3.38315 50.6451 3.37388C50.6451 3.34124 50.6451 3.3086 50.6451 3.27498C50.7968 3.18288 50.8725 3.16544 51.0407 3.22553Z" fill="#F12E1F"/>
<path d="M49.4584 2.78052C49.442 2.82947 49.4257 2.87843 49.4089 2.92887C49.2575 2.98759 49.2575 2.98759 49.1122 3.02777C49.1277 2.93196 49.1277 2.93196 49.1617 2.82997C49.31 2.78052 49.31 2.78052 49.4584 2.78052Z" fill="#060808"/>
<path d="M54.8978 27.3076C54.8815 27.3566 54.8652 27.4055 54.8484 27.456C54.7216 27.5147 54.7216 27.5147 54.6011 27.5549C54.6166 27.4591 54.6166 27.4591 54.6506 27.3571C54.7989 27.3076 54.7989 27.3076 54.8978 27.3076Z" fill="#030505"/>
<path d="M44.3156 19.0496C44.3482 19.0496 44.3808 19.0496 44.4145 19.0496C44.5628 19.2664 44.5628 19.2664 44.5628 19.3957C44.467 19.3617 44.467 19.3617 44.365 19.2968C44.3279 19.167 44.3279 19.167 44.3156 19.0496Z" fill="#F32F1F"/>
<path d="M43.0298 16.4287C43.1514 16.6111 43.1788 16.7599 43.2276 16.9727C43.1287 16.8954 43.1287 16.8954 43.0298 16.7749C43.0174 16.5894 43.0174 16.5894 43.0298 16.4287Z" fill="#25181B"/>
<path d="M46.8869 15.5386C47.0012 15.6365 47.1154 15.7344 47.2331 15.8353C47.2004 15.8679 47.1678 15.9005 47.1342 15.9342C46.8869 15.6498 46.8869 15.6498 46.8869 15.5386Z" fill="#F62F1E"/>
<path d="M49.1616 11.2363C49.2106 11.2526 49.2595 11.269 49.31 11.2858C49.2447 11.4 49.1794 11.5142 49.1122 11.6319C49.0661 11.5031 49.0553 11.4518 49.1091 11.3229C49.1264 11.2943 49.1437 11.2658 49.1616 11.2363Z" fill="#F22C1E"/>
<path d="M47.6781 10.1484C47.7108 10.1484 47.7434 10.1484 47.777 10.1484C47.7644 10.2643 47.7477 10.3798 47.7276 10.4946C47.6786 10.5191 47.6786 10.5191 47.6287 10.544C47.6225 10.2597 47.6225 10.2597 47.6781 10.1484Z" fill="#ED301F"/>
<path d="M57.8649 3.52222C58.0117 3.54669 58.0117 3.54669 58.1616 3.57167C58.1616 3.6043 58.1616 3.63694 58.1616 3.67057C58.2105 3.68689 58.2595 3.7032 58.3099 3.72002C58.1794 3.7037 58.0488 3.68738 57.9143 3.67057C57.898 3.62161 57.8817 3.57266 57.8649 3.52222Z" fill="#151418"/>
<path d="M60.3373 1.49487C60.3373 1.67169 60.2835 1.74474 60.189 1.89047C60.14 1.87416 60.0911 1.85784 60.0406 1.84102C60.1386 1.72679 60.2365 1.61256 60.3373 1.49487Z" fill="#0F7E2A"/>
<path d="M74.3351 8.82169H75.3788V9.17229C75.3788 9.62346 75.2184 9.99037 74.8977 10.273C74.5824 10.5557 74.1775 10.697 73.6828 10.697C73.1882 10.697 72.7805 10.5557 72.4598 10.273C72.1445 9.99037 71.9869 9.62346 71.9869 9.17229V6.35114C71.9869 5.89998 72.1445 5.53307 72.4598 5.25041C72.7805 4.96775 73.1882 4.82642 73.6828 4.82642C74.1775 4.82642 74.5824 4.96775 74.8977 5.25041C75.2184 5.53307 75.3788 5.89998 75.3788 6.35114V6.70175H74.3351V6.26145C74.3351 6.08208 74.2726 5.93803 74.1476 5.82931C74.0226 5.7206 73.8676 5.66624 73.6828 5.66624C73.4871 5.66624 73.3295 5.7206 73.2099 5.82931C73.0903 5.93803 73.0305 6.08208 73.0305 6.26145V9.26198C73.0305 9.4468 73.0903 9.59356 73.2099 9.70228C73.3295 9.80555 73.4871 9.85719 73.6828 9.85719C73.8676 9.85719 74.0226 9.80284 74.1476 9.69412C74.2726 9.58541 74.3351 9.43864 74.3351 9.25383V8.82169ZM79.3202 9.17229C79.3202 9.62346 79.1599 9.99037 78.8391 10.273C78.5239 10.5557 78.1189 10.697 77.6243 10.697C77.1296 10.697 76.7219 10.5557 76.4012 10.273C76.0859 9.99037 75.9283 9.62346 75.9283 9.17229V6.35114C75.9283 5.89998 76.0859 5.53307 76.4012 5.25041C76.7219 4.96775 77.1296 4.82642 77.6243 4.82642C78.1189 4.82642 78.5239 4.96775 78.8391 5.25041C79.1599 5.53307 79.3202 5.89998 79.3202 6.35114V9.17229ZM78.2766 9.25383V6.26145C78.2766 6.08208 78.214 5.93803 78.089 5.82931C77.964 5.7206 77.8091 5.66624 77.6243 5.66624C77.4286 5.66624 77.2709 5.7206 77.1514 5.82931C77.0318 5.93803 76.972 6.08208 76.972 6.26145V9.26198C76.972 9.4468 77.0318 9.59356 77.1514 9.70228C77.2709 9.80555 77.4286 9.85719 77.6243 9.85719C77.8091 9.85719 77.964 9.80284 78.089 9.69412C78.214 9.58541 78.2766 9.43864 78.2766 9.25383ZM81.6125 8.38955H81.0499V10.6155H80.0063V4.90796H81.6125C82.1072 4.90796 82.5121 5.04929 82.8274 5.33194C83.1427 5.6146 83.3003 5.98151 83.3003 6.43268V6.86482C83.3003 7.31599 83.1427 7.6829 82.8274 7.96556C82.5121 8.24822 82.1072 8.38955 81.6125 8.38955ZM81.5881 5.74778H81.0499V7.54972H81.5881C81.7837 7.54972 81.9414 7.49537 82.061 7.38665C82.186 7.27794 82.2485 7.13117 82.2485 6.94636V6.34299C82.2485 6.16361 82.186 6.01956 82.061 5.91085C81.9414 5.80214 81.7837 5.74778 81.5881 5.74778ZM84.9773 10.6155V8.47108L83.526 4.90796H84.6104L85.5155 7.33773L86.4287 4.90796H87.505L86.0292 8.47108V10.6155H84.9773ZM88.9567 8.38955V10.6155H87.913V4.90796H89.5519C90.0466 4.90796 90.4515 5.04929 90.7668 5.33194C91.0821 5.6146 91.2397 5.98151 91.2397 6.43268V6.86482C91.2397 7.46819 90.9761 7.90848 90.4488 8.18571L91.4598 10.6155H90.3999L89.5764 8.38955H88.9567ZM89.5274 5.74778H88.9567V7.54972H89.5274C89.7286 7.54972 89.8889 7.49808 90.0085 7.39481C90.1335 7.28609 90.196 7.13661 90.196 6.94636V6.34299C90.196 6.16361 90.1335 6.01956 90.0085 5.91085C89.8835 5.80214 89.7231 5.74778 89.5274 5.74778ZM91.8943 10.6155V4.90796H92.9379V10.6155H91.8943ZM95.3253 7.45188H97.0049V9.17229C97.0049 9.62346 96.8446 9.99037 96.5239 10.273C96.2086 10.5557 95.8036 10.697 95.309 10.697C94.8143 10.697 94.4066 10.5557 94.0859 10.273C93.7707 9.99037 93.613 9.62346 93.613 9.17229V6.35114C93.613 5.89998 93.7707 5.53307 94.0859 5.25041C94.4066 4.96775 94.8143 4.82642 95.309 4.82642C95.8036 4.82642 96.2086 4.96775 96.5239 5.25041C96.8446 5.53307 97.0049 5.89998 97.0049 6.35114V6.70175H95.9613V6.26145C95.9613 6.08208 95.8988 5.93803 95.7737 5.82931C95.6487 5.7206 95.4938 5.66624 95.309 5.66624C95.1133 5.66624 94.9557 5.7206 94.8361 5.82931C94.7165 5.93803 94.6567 6.08208 94.6567 6.26145V9.26198C94.6567 9.4468 94.7165 9.59356 94.8361 9.70228C94.9557 9.80555 95.1133 9.85719 95.309 9.85719C95.4938 9.85719 95.6487 9.80284 95.7737 9.69412C95.8988 9.58541 95.9613 9.43864 95.9613 9.25383V8.2917H95.3253V7.45188ZM98.7267 10.6155H97.683V4.90796H98.7267V7.30512H100.08V4.90796H101.124V10.6155H100.08V8.14494H98.7267V10.6155ZM104.913 4.90796V5.74778H103.763V10.6155H102.72V5.74778H101.578V4.90796H104.913ZM74.3351 15.8217H75.3788V16.1723C75.3788 16.6235 75.2184 16.9904 74.8977 17.273C74.5824 17.5557 74.1775 17.697 73.6828 17.697C73.1882 17.697 72.7805 17.5557 72.4598 17.273C72.1445 16.9904 71.9869 16.6235 71.9869 16.1723V13.3511C71.9869 12.9 72.1445 12.5331 72.4598 12.2504C72.7805 11.9678 73.1882 11.8264 73.6828 11.8264C74.1775 11.8264 74.5824 11.9678 74.8977 12.2504C75.2184 12.5331 75.3788 12.9 75.3788 13.3511V13.7017H74.3351V13.2615C74.3351 13.0821 74.2726 12.938 74.1476 12.8293C74.0226 12.7206 73.8676 12.6662 73.6828 12.6662C73.4871 12.6662 73.3295 12.7206 73.2099 12.8293C73.0903 12.938 73.0305 13.0821 73.0305 13.2615V16.262C73.0305 16.4468 73.0903 16.5936 73.2099 16.7023C73.3295 16.8056 73.4871 16.8572 73.6828 16.8572C73.8676 16.8572 74.0226 16.8028 74.1476 16.6941C74.2726 16.5854 74.3351 16.4386 74.3351 16.2538V15.8217ZM77.0209 17.6155H75.9772V11.908H77.0209V14.3051H78.3744V11.908H79.4181V17.6155H78.3744V15.1449H77.0209V17.6155ZM82.9218 16.7757V17.6155H80.1496V11.908H82.9218V12.7478H81.1932V14.3051H82.718V15.1449H81.1932V16.7757H82.9218ZM85.8807 15.8217H86.9244V16.1723C86.9244 16.6235 86.764 16.9904 86.4433 17.273C86.1281 17.5557 85.7231 17.697 85.2285 17.697C84.7338 17.697 84.3261 17.5557 84.0054 17.273C83.6901 16.9904 83.5325 16.6235 83.5325 16.1723V13.3511C83.5325 12.9 83.6901 12.5331 84.0054 12.2504C84.3261 11.9678 84.7338 11.8264 85.2285 11.8264C85.7231 11.8264 86.1281 11.9678 86.4433 12.2504C86.764 12.5331 86.9244 12.9 86.9244 13.3511V13.7017H85.8807V13.2615C85.8807 13.0821 85.8182 12.938 85.6932 12.8293C85.5682 12.7206 85.4133 12.6662 85.2285 12.6662C85.0328 12.6662 84.8751 12.7206 84.7555 12.8293C84.636 12.938 84.5762 13.0821 84.5762 13.2615V16.262C84.5762 16.4468 84.636 16.5936 84.7555 16.7023C84.8751 16.8056 85.0328 16.8572 85.2285 16.8572C85.4133 16.8572 85.5682 16.8028 85.6932 16.6941C85.8182 16.5854 85.8807 16.4386 85.8807 16.2538V15.8217ZM89.9852 17.6155L88.5665 14.8759V17.6155H87.5229V11.908H88.5665V14.4356L89.8466 11.908H90.98L89.5531 14.6639L91.1104 17.6155H89.9852ZM94.3002 16.7757V17.6155H91.528V11.908H94.3002V12.7478H92.5717V14.3051H94.0964V15.1449H92.5717V16.7757H94.3002ZM96.0035 15.3895V17.6155H94.9598V11.908H96.5987C97.0934 11.908 97.4983 12.0493 97.8136 12.3319C98.1289 12.6146 98.2865 12.9815 98.2865 13.4327V13.8648C98.2865 14.4682 98.0229 14.9085 97.4956 15.1857L98.5067 17.6155H97.4467L96.6232 15.3895H96.0035ZM96.5743 12.7478H96.0035V14.5497H96.5743C96.7754 14.5497 96.9357 14.4981 97.0553 14.3948C97.1803 14.2861 97.2428 14.1366 97.2428 13.9464V13.343C97.2428 13.1636 97.1803 13.0196 97.0553 12.9109C96.9303 12.8021 96.7699 12.7478 96.5743 12.7478ZM99.6097 17.6562C99.4031 17.6562 99.2373 17.5965 99.1123 17.4769C98.9873 17.3518 98.9248 17.1996 98.9248 17.0203C98.9248 16.8409 98.9873 16.6914 99.1123 16.5718C99.2373 16.4468 99.4031 16.3843 99.6097 16.3843C99.8054 16.3843 99.9657 16.4468 100.091 16.5718C100.216 16.6914 100.278 16.8409 100.278 17.0203C100.278 17.1996 100.216 17.3518 100.091 17.4769C99.9657 17.5965 99.8054 17.6562 99.6097 17.6562ZM100.995 17.6155V11.908H102.642C103.137 11.908 103.542 12.0493 103.857 12.3319C104.173 12.6092 104.33 12.9761 104.33 13.4327V16.0908C104.33 16.5474 104.173 16.917 103.857 17.1996C103.542 17.4769 103.137 17.6155 102.642 17.6155H100.995ZM102.618 12.7478H102.039V16.7757H102.618C102.819 16.7757 102.979 16.724 103.099 16.6207C103.224 16.512 103.287 16.3653 103.287 16.1804V13.343C103.287 13.1636 103.224 13.0196 103.099 12.9109C102.974 12.8021 102.814 12.7478 102.618 12.7478ZM107.789 16.7757V17.6155H105.016V11.908H107.789V12.7478H106.06V14.3051H107.585V15.1449H106.06V16.7757H107.789ZM71.7996 23.2859V20.8389H72.1985V20.9361C72.3058 20.849 72.4231 20.8054 72.5505 20.8054C72.6801 20.8054 72.784 20.8501 72.8622 20.9395C72.9427 21.0288 72.9829 21.1484 72.9829 21.2981V22.1562C72.9829 22.306 72.9427 22.4255 72.8622 22.5149C72.784 22.6043 72.6801 22.649 72.5505 22.649C72.4186 22.649 72.3013 22.6054 72.1985 22.5183V23.2859H71.7996ZM72.3862 22.3339C72.4443 22.3339 72.4913 22.3171 72.527 22.2836C72.565 22.2479 72.584 22.2054 72.584 22.1562V21.2981C72.584 21.249 72.565 21.2076 72.527 21.1741C72.4913 21.1383 72.4443 21.1205 72.3862 21.1205C72.3326 21.1205 72.2879 21.1339 72.2521 21.1607C72.2164 21.1875 72.1985 21.2244 72.1985 21.2713V22.1831C72.1985 22.23 72.2164 22.2669 72.2521 22.2937C72.2879 22.3205 72.3326 22.3339 72.3862 22.3339ZM74.3934 22.1227C74.3934 22.2792 74.3375 22.4065 74.2258 22.5049C74.1163 22.601 73.9755 22.649 73.8034 22.649C73.6291 22.649 73.4861 22.601 73.3743 22.5049C73.2648 22.4065 73.2101 22.2792 73.2101 22.1227V21.3316C73.2101 21.1752 73.2648 21.049 73.3743 20.9529C73.4861 20.8545 73.6291 20.8054 73.8034 20.8054C73.9755 20.8054 74.1163 20.8545 74.2258 20.9529C74.3375 21.049 74.3934 21.1752 74.3934 21.3316V22.1227ZM73.9978 22.1596V21.2948C73.9978 21.2411 73.9788 21.1987 73.9408 21.1674C73.9051 21.1361 73.8593 21.1205 73.8034 21.1205C73.7453 21.1205 73.6973 21.1361 73.6593 21.1674C73.6235 21.1987 73.6056 21.2411 73.6056 21.2948V22.1596C73.6056 22.2132 73.6235 22.2557 73.6593 22.287C73.6973 22.3183 73.7453 22.3339 73.8034 22.3339C73.8593 22.3339 73.9051 22.3183 73.9408 22.287C73.9788 22.2557 73.9978 22.2132 73.9978 22.1596ZM75.7454 22.6155L75.4873 21.5831L75.2325 22.6155H74.9174L74.4481 20.8389H74.8403L75.0884 21.8948L75.3398 20.8389H75.6348L75.8862 21.8948L76.1376 20.8389H76.5298L76.0605 22.6155H75.7454ZM76.5949 22.1227V21.3316C76.5949 21.1752 76.6496 21.049 76.7591 20.9529C76.8708 20.8545 77.0139 20.8054 77.1882 20.8054C77.3602 20.8054 77.501 20.8545 77.6105 20.9529C77.7223 21.049 77.7781 21.1752 77.7781 21.3316V21.868H76.9904V22.1596C76.9904 22.2132 77.0083 22.2557 77.044 22.287C77.082 22.3183 77.1301 22.3339 77.1882 22.3339C77.2463 22.3339 77.2932 22.3183 77.329 22.287C77.3647 22.2557 77.3826 22.2132 77.3826 22.1596V22.0624H77.7781V22.1227C77.7781 22.2792 77.7223 22.4065 77.6105 22.5049C77.501 22.601 77.3602 22.649 77.1882 22.649C77.0139 22.649 76.8708 22.601 76.7591 22.5049C76.6496 22.4065 76.5949 22.2792 76.5949 22.1227ZM77.329 21.1674C77.2932 21.1361 77.2463 21.1205 77.1882 21.1205C77.1301 21.1205 77.082 21.1361 77.044 21.1674C77.0083 21.1987 76.9904 21.2411 76.9904 21.2948V21.5562H77.3826V21.2948C77.3826 21.2411 77.3647 21.1987 77.329 21.1674ZM78.0061 22.6155V20.8389H78.405V20.9964C78.5324 20.8691 78.6743 20.8054 78.8307 20.8054V21.1506C78.71 21.1506 78.6095 21.1741 78.529 21.221C78.4508 21.268 78.4095 21.3272 78.405 21.3987V22.6155H78.0061ZM78.9616 22.1227V21.3316C78.9616 21.1752 79.0163 21.049 79.1258 20.9529C79.2376 20.8545 79.3806 20.8054 79.5549 20.8054C79.727 20.8054 79.8677 20.8545 79.9772 20.9529C80.089 21.049 80.1448 21.1752 80.1448 21.3316V21.868H79.3571V22.1596C79.3571 22.2132 79.375 22.2557 79.4108 22.287C79.4487 22.3183 79.4968 22.3339 79.5549 22.3339C79.613 22.3339 79.6599 22.3183 79.6957 22.287C79.7314 22.2557 79.7493 22.2132 79.7493 22.1596V22.0624H80.1448V22.1227C80.1448 22.2792 80.089 22.4065 79.9772 22.5049C79.8677 22.601 79.727 22.649 79.5549 22.649C79.3806 22.649 79.2376 22.601 79.1258 22.5049C79.0163 22.4065 78.9616 22.2792 78.9616 22.1227ZM79.6957 21.1674C79.6599 21.1361 79.613 21.1205 79.5549 21.1205C79.4968 21.1205 79.4487 21.1361 79.4108 21.1674C79.375 21.1987 79.3571 21.2411 79.3571 21.2948V21.5562H79.7493V21.2948C79.7493 21.2411 79.7314 21.1987 79.6957 21.1674ZM81.5393 22.6155H81.1405V22.5183C81.0377 22.6054 80.9203 22.649 80.7885 22.649C80.6589 22.649 80.5538 22.6043 80.4734 22.5149C80.3952 22.4255 80.3561 22.306 80.3561 22.1562V21.2981C80.3561 21.1484 80.3952 21.0288 80.4734 20.9395C80.5538 20.8501 80.6589 20.8054 80.7885 20.8054C80.9159 20.8054 81.0332 20.849 81.1405 20.9361V20.2691H81.5393V22.6155ZM80.9494 22.3339C81.0053 22.3339 81.0511 22.3205 81.0868 22.2937C81.1226 22.2646 81.1405 22.2278 81.1405 22.1831V21.2579C81.1382 21.2154 81.1192 21.1819 81.0835 21.1573C81.0477 21.1328 81.003 21.1205 80.9494 21.1205C80.8913 21.1205 80.8432 21.1383 80.8053 21.1741C80.7695 21.2076 80.7516 21.249 80.7516 21.2981V22.1562C80.7516 22.2054 80.7695 22.2479 80.8053 22.2836C80.8432 22.3171 80.8913 22.3339 80.9494 22.3339ZM82.4319 22.6155V20.2691H82.8307V20.9361C82.938 20.849 83.0564 20.8054 83.1861 20.8054C83.3134 20.8054 83.4162 20.8456 83.4944 20.9261C83.5749 21.0065 83.6151 21.1205 83.6151 21.268V22.1864C83.6151 22.3339 83.5749 22.4479 83.4944 22.5283C83.4162 22.6088 83.3134 22.649 83.1861 22.649C83.052 22.649 82.9335 22.6054 82.8307 22.5183V22.6155H82.4319ZM82.8844 22.2937C82.9201 22.3205 82.9671 22.3339 83.0252 22.3339C83.0833 22.3339 83.1291 22.3216 83.1626 22.297C83.1984 22.2702 83.2162 22.2333 83.2162 22.1864V21.268C83.2162 21.221 83.1984 21.1853 83.1626 21.1607C83.1291 21.1339 83.0833 21.1205 83.0252 21.1205C82.9023 21.1205 82.8374 21.1663 82.8307 21.2579V22.1831C82.8307 22.23 82.8486 22.2669 82.8844 22.2937ZM85.0003 20.8389L84.3433 23.2859H83.9813L84.1489 22.6389L83.6695 20.8389H84.0449L84.3299 21.9484L84.6215 20.8389H85.0003ZM86.3173 20.8054C86.4871 20.8054 86.6245 20.8534 86.7296 20.9495C86.8368 21.0434 86.8905 21.1674 86.8905 21.3216V21.4054H86.4949V21.3015C86.4949 21.2456 86.477 21.202 86.4413 21.1708C86.4078 21.1372 86.3631 21.1205 86.3072 21.1205C86.2536 21.1205 86.21 21.135 86.1765 21.164C86.1452 21.1931 86.1295 21.2356 86.1295 21.2914C86.1295 21.383 86.1631 21.4445 86.2301 21.4758L86.6089 21.6501C86.7027 21.6948 86.7765 21.7607 86.8301 21.8479C86.8838 21.935 86.9106 22.0322 86.9106 22.1395C86.9106 22.2914 86.8558 22.4144 86.7463 22.5082C86.6368 22.6021 86.496 22.649 86.324 22.649C86.1474 22.649 86.0044 22.6021 85.8949 22.5082C85.7854 22.4121 85.7307 22.287 85.7307 22.1328V22.049H86.1262V22.1529C86.1262 22.211 86.1452 22.2557 86.1832 22.287C86.2212 22.3183 86.2714 22.3339 86.334 22.3339C86.3921 22.3339 86.439 22.3194 86.4748 22.2903C86.5106 22.259 86.5284 22.2177 86.5284 22.1663C86.5284 22.0792 86.4893 22.0166 86.4111 21.9786L86.0357 21.8043C85.9463 21.7596 85.8759 21.6948 85.8245 21.6099C85.7731 21.5227 85.7474 21.4266 85.7474 21.3216C85.7474 21.1674 85.801 21.0434 85.9083 20.9495C86.0156 20.8534 86.1519 20.8054 86.3173 20.8054ZM88.2991 22.1227C88.2991 22.2792 88.2432 22.4065 88.1315 22.5049C88.022 22.601 87.8812 22.649 87.7091 22.649C87.5348 22.649 87.3918 22.601 87.2801 22.5049C87.1706 22.4065 87.1158 22.2792 87.1158 22.1227V21.3316C87.1158 21.1752 87.1706 21.049 87.2801 20.9529C87.3918 20.8545 87.5348 20.8054 87.7091 20.8054C87.8812 20.8054 88.022 20.8545 88.1315 20.9529C88.2432 21.049 88.2991 21.1752 88.2991 21.3316V22.1227ZM87.9035 22.1596V21.2948C87.9035 21.2411 87.8845 21.1987 87.8465 21.1674C87.8108 21.1361 87.765 21.1205 87.7091 21.1205C87.651 21.1205 87.603 21.1361 87.565 21.1674C87.5292 21.1987 87.5113 21.2411 87.5113 21.2948V22.1596C87.5113 22.2132 87.5292 22.2557 87.565 22.287C87.603 22.3183 87.651 22.3339 87.7091 22.3339C87.765 22.3339 87.8108 22.3183 87.8465 22.287C87.8845 22.2557 87.9035 22.2132 87.9035 22.1596ZM89.3144 21.4423V21.2948C89.3144 21.2411 89.2965 21.1987 89.2608 21.1674C89.225 21.1361 89.1781 21.1205 89.12 21.1205C89.0619 21.1205 89.0138 21.1361 88.9758 21.1674C88.9401 21.1987 88.9222 21.2411 88.9222 21.2948V22.1596C88.9222 22.2132 88.9401 22.2557 88.9758 22.287C89.0138 22.3183 89.0619 22.3339 89.12 22.3339C89.1781 22.3339 89.225 22.3183 89.2608 22.287C89.2965 22.2557 89.3144 22.2132 89.3144 22.1596V22.0121H89.7099V22.1227C89.7099 22.2792 89.6541 22.4065 89.5423 22.5049C89.4328 22.601 89.292 22.649 89.12 22.649C88.9457 22.649 88.8027 22.601 88.6909 22.5049C88.5814 22.4065 88.5267 22.2792 88.5267 22.1227V21.3316C88.5267 21.1752 88.5814 21.049 88.6909 20.9529C88.8027 20.8545 88.9457 20.8054 89.12 20.8054C89.292 20.8054 89.4328 20.8545 89.5423 20.9529C89.6541 21.049 89.7099 21.1752 89.7099 21.3316V21.4423H89.3144ZM89.9347 22.6155V20.8389H90.3335V22.6155H89.9347ZM89.9347 20.5976V20.2154H90.3335V20.5976H89.9347ZM90.9579 21.4087H90.5624V21.3316C90.5624 21.1752 90.6171 21.049 90.7266 20.9529C90.8384 20.8545 90.9803 20.8054 91.1523 20.8054C91.3244 20.8054 91.4652 20.8545 91.5747 20.9529C91.6864 21.049 91.7423 21.1752 91.7423 21.3316V22.6155H91.3468V22.5149C91.2373 22.6043 91.1166 22.649 90.9847 22.649C90.8574 22.649 90.7546 22.6099 90.6763 22.5317C90.6004 22.4512 90.5624 22.3373 90.5624 22.1898V22.0557C90.5624 21.9015 90.616 21.7786 90.7233 21.687C90.8328 21.5953 90.9747 21.5451 91.149 21.5361L91.3468 21.5261V21.2948C91.3468 21.2411 91.3278 21.1987 91.2898 21.1674C91.254 21.1361 91.2082 21.1205 91.1523 21.1205C91.0965 21.1205 91.0495 21.1361 91.0115 21.1674C90.9758 21.1987 90.9579 21.2411 90.9579 21.2948V21.4087ZM91.1523 22.3339C91.2037 22.3339 91.2473 22.3227 91.2831 22.3004C91.3211 22.2758 91.3423 22.2423 91.3468 22.1998V21.8412L91.1624 21.8512C91.0261 21.8579 90.9579 21.916 90.9579 22.0255V22.1898C90.9579 22.2859 91.0227 22.3339 91.1523 22.3339ZM92.6105 22.3004V22.6155H92.5435C92.3736 22.6155 92.2384 22.5753 92.1379 22.4948C92.0396 22.4121 91.9904 22.3026 91.9904 22.1663V20.2691H92.3893V22.1663C92.3893 22.2557 92.4407 22.3004 92.5435 22.3004H92.6105ZM93.544 22.6155V21.268C93.544 21.221 93.5261 21.1853 93.4903 21.1607C93.4568 21.1339 93.411 21.1205 93.3529 21.1205C93.2322 21.1205 93.1685 21.1663 93.1618 21.2579V22.6155H92.7629V20.8389H93.1618V20.9361C93.2691 20.849 93.3875 20.8054 93.5171 20.8054C93.6803 20.8054 93.7998 20.8702 93.8758 20.9998C93.9965 20.8702 94.1362 20.8054 94.2948 20.8054C94.4222 20.8054 94.525 20.8456 94.6032 20.9261C94.6814 21.0065 94.7205 21.1205 94.7205 21.268V22.6155H94.325V21.268C94.325 21.221 94.3071 21.1853 94.2713 21.1607C94.2378 21.1339 94.192 21.1205 94.1339 21.1205C94.0758 21.1205 94.0289 21.1339 93.9931 21.1607C93.9574 21.1875 93.9395 21.2244 93.9395 21.2713V22.6155H93.544ZM94.9689 22.1227V21.3316C94.9689 21.1752 95.0236 21.049 95.1331 20.9529C95.2448 20.8545 95.3879 20.8054 95.5622 20.8054C95.7342 20.8054 95.875 20.8545 95.9845 20.9529C96.0963 21.049 96.1521 21.1752 96.1521 21.3316V21.868H95.3644V22.1596C95.3644 22.2132 95.3823 22.2557 95.418 22.287C95.456 22.3183 95.5041 22.3339 95.5622 22.3339C95.6203 22.3339 95.6672 22.3183 95.703 22.287C95.7387 22.2557 95.7566 22.2132 95.7566 22.1596V22.0624H96.1521V22.1227C96.1521 22.2792 96.0963 22.4065 95.9845 22.5049C95.875 22.601 95.7342 22.649 95.5622 22.649C95.3879 22.649 95.2448 22.601 95.1331 22.5049C95.0236 22.4065 94.9689 22.2792 94.9689 22.1227ZM95.703 21.1674C95.6672 21.1361 95.6203 21.1205 95.5622 21.1205C95.5041 21.1205 95.456 21.1361 95.418 21.1674C95.3823 21.1987 95.3644 21.2411 95.3644 21.2948V21.5562H95.7566V21.2948C95.7566 21.2411 95.7387 21.1987 95.703 21.1674ZM97.5466 22.6155H97.1477V22.5183C97.0449 22.6054 96.9276 22.649 96.7958 22.649C96.6662 22.649 96.5611 22.6043 96.4807 22.5149C96.4025 22.4255 96.3634 22.306 96.3634 22.1562V21.2981C96.3634 21.1484 96.4025 21.0288 96.4807 20.9395C96.5611 20.8501 96.6662 20.8054 96.7958 20.8054C96.9232 20.8054 97.0405 20.849 97.1477 20.9361V20.2691H97.5466V22.6155ZM96.9567 22.3339C97.0125 22.3339 97.0584 22.3205 97.0941 22.2937C97.1299 22.2646 97.1477 22.2278 97.1477 22.1831V21.2579C97.1455 21.2154 97.1265 21.1819 97.0908 21.1573C97.055 21.1328 97.0103 21.1205 96.9567 21.1205C96.8986 21.1205 96.8505 21.1383 96.8125 21.1741C96.7768 21.2076 96.7589 21.249 96.7589 21.2981V22.1562C96.7589 22.2054 96.7768 22.2479 96.8125 22.2836C96.8505 22.3171 96.8986 22.3339 96.9567 22.3339ZM97.8074 22.6155V20.8389H98.2062V22.6155H97.8074ZM97.8074 20.5976V20.2154H98.2062V20.5976H97.8074ZM98.8306 21.4087H98.4351V21.3316C98.4351 21.1752 98.4898 21.049 98.5993 20.9529C98.7111 20.8545 98.853 20.8054 99.025 20.8054C99.1971 20.8054 99.3379 20.8545 99.4474 20.9529C99.5591 21.049 99.615 21.1752 99.615 21.3316V22.6155H99.2195V22.5149C99.11 22.6043 98.9893 22.649 98.8574 22.649C98.7301 22.649 98.6273 22.6099 98.549 22.5317C98.4731 22.4512 98.4351 22.3373 98.4351 22.1898V22.0557C98.4351 21.9015 98.4887 21.7786 98.596 21.687C98.7055 21.5953 98.8474 21.5451 99.0217 21.5361L99.2195 21.5261V21.2948C99.2195 21.2411 99.2005 21.1987 99.1625 21.1674C99.1267 21.1361 99.0809 21.1205 99.025 21.1205C98.9692 21.1205 98.9222 21.1361 98.8843 21.1674C98.8485 21.1987 98.8306 21.2411 98.8306 21.2948V21.4087ZM99.025 22.3339C99.0764 22.3339 99.12 22.3227 99.1558 22.3004C99.1938 22.2758 99.215 22.2423 99.2195 22.1998V21.8412L99.0351 21.8512C98.8988 21.8579 98.8306 21.916 98.8306 22.0255V22.1898C98.8306 22.2859 98.8954 22.3339 99.025 22.3339ZM99.8631 22.6155V20.2691H100.262V21.5763L100.641 20.8389H101.07L100.614 21.7004L101.13 22.6155H100.698L100.262 21.8177V22.6155H99.8631ZM101.264 22.6155V20.8389H101.663V22.6155H101.264ZM101.264 20.5976V20.2154H101.663V20.5976H101.264ZM102.324 21.2713V22.6155H101.925V20.8389H102.324V20.9361C102.432 20.849 102.55 20.8054 102.68 20.8054C102.807 20.8054 102.91 20.8456 102.988 20.9261C103.068 21.0065 103.109 21.1205 103.109 21.268V22.6155H102.71V21.268C102.71 21.221 102.692 21.1853 102.656 21.1607C102.623 21.1339 102.577 21.1205 102.519 21.1205C102.461 21.1205 102.414 21.1339 102.378 21.1607C102.342 21.1875 102.324 21.2244 102.324 21.2713ZM103.939 23.0043C103.999 23.0043 104.047 22.9864 104.083 22.9507C104.119 22.9149 104.137 22.8691 104.137 22.8132V22.5183C104.034 22.6054 103.919 22.649 103.791 22.649C103.659 22.649 103.553 22.6043 103.473 22.5149C103.392 22.4255 103.352 22.306 103.352 22.1562V21.2981C103.352 21.1484 103.392 21.0288 103.473 20.9395C103.553 20.8501 103.659 20.8054 103.791 20.8054C103.914 20.8054 104.029 20.849 104.137 20.9361V20.8389H104.535V22.773C104.535 22.9317 104.48 23.0624 104.368 23.1652C104.256 23.268 104.114 23.3194 103.942 23.3194C103.781 23.3194 103.643 23.2736 103.527 23.182C103.41 23.0926 103.352 22.9775 103.352 22.8367V22.7998H103.748V22.8367C103.748 22.8859 103.766 22.9261 103.801 22.9574C103.839 22.9887 103.885 23.0043 103.939 23.0043ZM103.952 22.3339C104.004 22.3339 104.047 22.3205 104.083 22.2937C104.119 22.2669 104.137 22.23 104.137 22.1831V21.2713C104.137 21.2244 104.119 21.1875 104.083 21.1607C104.047 21.1339 104.004 21.1205 103.952 21.1205C103.89 21.1205 103.839 21.1383 103.801 21.1741C103.766 21.2076 103.748 21.249 103.748 21.2981V22.1562C103.748 22.2054 103.766 22.2479 103.801 22.2836C103.839 22.3171 103.89 22.3339 103.952 22.3339ZM104.846 22.6155V22.1931H105.279V22.6155H104.846ZM106.693 22.6155H106.294V22.5183C106.191 22.6054 106.074 22.649 105.942 22.649C105.812 22.649 105.707 22.6043 105.627 22.5149C105.549 22.4255 105.509 22.306 105.509 22.1562V21.2981C105.509 21.1484 105.549 21.0288 105.627 20.9395C105.707 20.8501 105.812 20.8054 105.942 20.8054C106.069 20.8054 106.187 20.849 106.294 20.9361V20.2691H106.693V22.6155ZM106.103 22.3339C106.159 22.3339 106.204 22.3205 106.24 22.2937C106.276 22.2646 106.294 22.2278 106.294 22.1831V21.2579C106.292 21.2154 106.273 21.1819 106.237 21.1573C106.201 21.1328 106.156 21.1205 106.103 21.1205C106.045 21.1205 105.997 21.1383 105.959 21.1741C105.923 21.2076 105.905 21.249 105.905 21.2981V22.1562C105.905 22.2054 105.923 22.2479 105.959 22.2836C105.997 22.3171 106.045 22.3339 106.103 22.3339ZM106.937 22.1227V21.3316C106.937 21.1752 106.991 21.049 107.101 20.9529C107.213 20.8545 107.356 20.8054 107.53 20.8054C107.702 20.8054 107.843 20.8545 107.952 20.9529C108.064 21.049 108.12 21.1752 108.12 21.3316V21.868H107.332V22.1596C107.332 22.2132 107.35 22.2557 107.386 22.287C107.424 22.3183 107.472 22.3339 107.53 22.3339C107.588 22.3339 107.635 22.3183 107.671 22.287C107.707 22.2557 107.724 22.2132 107.724 22.1596V22.0624H108.12V22.1227C108.12 22.2792 108.064 22.4065 107.952 22.5049C107.843 22.601 107.702 22.649 107.53 22.649C107.356 22.649 107.213 22.601 107.101 22.5049C106.991 22.4065 106.937 22.2792 106.937 22.1227ZM107.671 21.1674C107.635 21.1361 107.588 21.1205 107.53 21.1205C107.472 21.1205 107.424 21.1361 107.386 21.1674C107.35 21.1987 107.332 21.2411 107.332 21.2948V21.5562H107.724V21.2948C107.724 21.2411 107.707 21.1987 107.671 21.1674Z" fill="#962EBF"/>
</svg>
